<svg xmlns="http://www.w3.org/2000/svg" viewBox="0 0 200 200"><title>Makaron chiński z kurczakiem</title><defs><clipPath id="k1"><path d="M162.7,118C162.8,120.3 162.1,121.7 160.8,123.5C159.5,125.3 157.4,127.1 154.9,128.7C152.5,130.3 149.5,131.8 146.1,133.1C142.8,134.5 138.8,135.6 134.8,136.7C130.8,137.8 126.7,138.9 122.1,139.6C117.5,140.3 112.4,140.5 107.4,140.8C102.5,141.0 97.3,141.2 92.4,141.0C87.5,140.8 82.5,140.2 77.9,139.6C73.3,138.9 68.9,137.9 64.8,136.8C60.8,135.8 56.8,134.6 53.6,133.2C50.4,131.8 47.9,130.2 45.5,128.5C43.2,126.9 40.7,125.3 39.4,123.5C38.0,121.7 37.3,120.3 37.4,118.0C37.4,115.6 38.3,112.3 39.5,109.5C40.6,106.7 42.0,103.9 44.3,101.4C46.6,98.9 50.0,96.7 53.4,94.5C56.7,92.4 60.2,90.2 64.2,88.6C68.3,86.9 73.0,85.5 77.7,84.7C82.4,83.9 87.6,84.1 92.6,83.7C97.6,83.3 102.6,82.2 107.6,82.2C112.6,82.3 117.8,83.2 122.5,84.2C127.1,85.3 131.7,86.9 135.6,88.6C139.5,90.4 142.6,92.7 145.9,94.8C149.2,97.0 153.2,98.9 155.5,101.4C157.9,103.8 158.8,106.8 160.0,109.5C161.2,112.3 162.6,115.6 162.7,118Z"/></clipPath><clipPath id="k2"><path d="M162.7,118C162.8,120.3 162.1,121.7 160.8,123.5C159.5,125.3 157.4,127.1 154.9,128.7C152.5,130.3 149.5,131.8 146.1,133.1C142.8,134.5 138.8,135.6 134.8,136.7C130.8,137.8 126.7,138.9 122.1,139.6C117.5,140.3 112.4,140.5 107.4,140.8C102.5,141.0 97.3,141.2 92.4,141.0C87.5,140.8 82.5,140.2 77.9,139.6C73.3,138.9 68.9,137.9 64.8,136.8C60.8,135.8 56.8,134.6 53.6,133.2C50.4,131.8 47.9,130.2 45.5,128.5C43.2,126.9 40.7,125.3 39.4,123.5C38.0,121.7 37.3,120.3 37.4,118.0C37.4,115.6 38.3,112.3 39.5,109.5C40.6,106.7 42.0,103.9 44.3,101.4C46.6,98.9 50.0,96.7 53.4,94.5C56.7,92.4 60.2,90.2 64.2,88.6C68.3,86.9 73.0,85.5 77.7,84.7C82.4,83.9 87.6,84.1 92.6,83.7C97.6,83.3 102.6,82.2 107.6,82.2C112.6,82.3 117.8,83.2 122.5,84.2C127.1,85.3 131.7,86.9 135.6,88.6C139.5,90.4 142.6,92.7 145.9,94.8C149.2,97.0 153.2,98.9 155.5,101.4C157.9,103.8 158.8,106.8 160.0,109.5C161.2,112.3 162.6,115.6 162.7,118Z"/></clipPath></defs><rect width="200" height="200" fill="#fbf3ea"/><circle cx="39.3" cy="63.4" r="21.2" fill="#f8e0cd"/><circle cx="71.1" cy="52.8" r="29.6" fill="#f8e0cd"/><circle cx="100.8" cy="67.7" r="19.0" fill="#f8e0cd"/><rect x="18.1" y="65.5" width="101.7" height="21.2" rx="10.6" fill="#f8e0cd"/><circle cx="128.8" cy="91.8" r="15.2" fill="#fbece1"/><circle cx="151.6" cy="84.2" r="21.2" fill="#fbece1"/><circle cx="172.9" cy="94.8" r="13.6" fill="#fbece1"/><rect x="113.6" y="93.3" width="72.9" height="15.2" rx="7.6" fill="#fbece1"/><g transform="translate(25.6 34.7) scale(1.29 1.29) rotate(58.0)"><path d="M-5,0Q0,-2.6 5,0Q0,2.6 -5,0Z" fill="#e8873a"/></g><g transform="translate(176.6 25.8) scale(1.15 1.15) rotate(26.4)"><path d="M-5,0Q0,-2.6 5,0Q0,2.6 -5,0Z" fill="#3f5563"/></g><g transform="translate(187.5 144.7) scale(1.29 1.29) rotate(80.6)"><path d="M-5,0Q0,-2.6 5,0Q0,2.6 -5,0Z" fill="#c9a9c9"/></g><g transform="translate(18.6 117.5) scale(1.03 1.03) rotate(89.5)"><path d="M-5,0Q0,-2.6 5,0Q0,2.6 -5,0Z" fill="#f0b27a"/></g><g transform="translate(33.7 186.3) scale(1.25 1.25) rotate(35.0)"><path d="M-5,0Q0,-2.6 5,0Q0,2.6 -5,0Z" fill="#f0b27a"/></g><g transform="translate(167.5 191.7) scale(1.17 1.17) rotate(1.3)"><path d="M-5,0Q0,-2.6 5,0Q0,2.6 -5,0Z" fill="#f0b27a"/></g><g transform="translate(100 110) scale(1.06) translate(-100 -110)"><ellipse cx="100" cy="133" rx="80.9" ry="21.0" fill="#8f6aa0" opacity="0.2"/><ellipse cx="100" cy="128.5" rx="86.6" ry="32.6" fill="#27282d"/><ellipse cx="100" cy="124" rx="88" ry="34" fill="#2f3036"/><ellipse cx="100" cy="126" rx="61.5" ry="22.4" fill="#2d2e34"/><path d="M42.1,118.3A61.5,22.4 0 0,1 157.8,118.3" fill="none" stroke="#2a2b31" stroke-width="1.5" stroke-linecap="round" stroke-linejoin="round"/><path d="M21.1,135.9A85,32 0 0,0 60.0,152.2" fill="none" stroke="#acacaf" stroke-width="1.5" stroke-linecap="round" stroke-linejoin="round"/><path d="M162.7,118C162.8,120.3 162.1,121.7 160.8,123.5C159.5,125.3 157.4,127.1 154.9,128.7C152.5,130.3 149.5,131.8 146.1,133.1C142.8,134.5 138.8,135.6 134.8,136.7C130.8,137.8 126.7,138.9 122.1,139.6C117.5,140.3 112.4,140.5 107.4,140.8C102.5,141.0 97.3,141.2 92.4,141.0C87.5,140.8 82.5,140.2 77.9,139.6C73.3,138.9 68.9,137.9 64.8,136.8C60.8,135.8 56.8,134.6 53.6,133.2C50.4,131.8 47.9,130.2 45.5,128.5C43.2,126.9 40.7,125.3 39.4,123.5C38.0,121.7 37.3,120.3 37.4,118.0C37.4,115.6 38.3,112.3 39.5,109.5C40.6,106.7 42.0,103.9 44.3,101.4C46.6,98.9 50.0,96.7 53.4,94.5C56.7,92.4 60.2,90.2 64.2,88.6C68.3,86.9 73.0,85.5 77.7,84.7C82.4,83.9 87.6,84.1 92.6,83.7C97.6,83.3 102.6,82.2 107.6,82.2C112.6,82.3 117.8,83.2 122.5,84.2C127.1,85.3 131.7,86.9 135.6,88.6C139.5,90.4 142.6,92.7 145.9,94.8C149.2,97.0 153.2,98.9 155.5,101.4C157.9,103.8 158.8,106.8 160.0,109.5C161.2,112.3 162.6,115.6 162.7,118Z" fill="#8c5625" transform="translate(0 2.5)"/><path d="M162.7,118C162.8,120.3 162.1,121.7 160.8,123.5C159.5,125.3 157.4,127.1 154.9,128.7C152.5,130.3 149.5,131.8 146.1,133.1C142.8,134.5 138.8,135.6 134.8,136.7C130.8,137.8 126.7,138.9 122.1,139.6C117.5,140.3 112.4,140.5 107.4,140.8C102.5,141.0 97.3,141.2 92.4,141.0C87.5,140.8 82.5,140.2 77.9,139.6C73.3,138.9 68.9,137.9 64.8,136.8C60.8,135.8 56.8,134.6 53.6,133.2C50.4,131.8 47.9,130.2 45.5,128.5C43.2,126.9 40.7,125.3 39.4,123.5C38.0,121.7 37.3,120.3 37.4,118.0C37.4,115.6 38.3,112.3 39.5,109.5C40.6,106.7 42.0,103.9 44.3,101.4C46.6,98.9 50.0,96.7 53.4,94.5C56.7,92.4 60.2,90.2 64.2,88.6C68.3,86.9 73.0,85.5 77.7,84.7C82.4,83.9 87.6,84.1 92.6,83.7C97.6,83.3 102.6,82.2 107.6,82.2C112.6,82.3 117.8,83.2 122.5,84.2C127.1,85.3 131.7,86.9 135.6,88.6C139.5,90.4 142.6,92.7 145.9,94.8C149.2,97.0 153.2,98.9 155.5,101.4C157.9,103.8 158.8,106.8 160.0,109.5C161.2,112.3 162.6,115.6 162.7,118Z" fill="#c37734"/><g clip-path="url(#k1)"><ellipse cx="143.4" cy="134.1" rx="38.4" ry="33.4" fill="#ac692e"/><ellipse cx="78.9" cy="98.7" rx="22.3" ry="10.2" fill="#cd8d54"/></g><g clip-path="url(#k2)"><path d="M127.8,115.0C128.6,115.4 130.9,116.9 132.3,117.9C133.6,119.0 134.3,120.4 136.0,121.2C137.7,121.9 140.4,122.4 142.6,122.5C144.9,122.5 147.6,122.3 149.5,121.6C151.3,121.0 153.0,119.7 153.6,118.5C154.2,117.4 152.4,115.8 153.0,114.7C153.7,113.5 155.6,112.5 157.3,111.6C159.0,110.7 161.8,110.4 163.0,109.4C164.3,108.4 164.7,107.0 165.0,105.7C165.4,104.5 165.0,103.2 164.9,101.9C164.8,100.6 164.0,99.2 164.7,98.0C165.4,96.9 168.3,95.5 169.0,95.0" fill="none" stroke="#a5642c" stroke-width="3.9" stroke-linecap="round" stroke-linejoin="round" transform="translate(0 1)"/><path d="M127.8,115.0C128.6,115.4 130.9,116.9 132.3,117.9C133.6,119.0 134.3,120.4 136.0,121.2C137.7,121.9 140.4,122.4 142.6,122.5C144.9,122.5 147.6,122.3 149.5,121.6C151.3,121.0 153.0,119.7 153.6,118.5C154.2,117.4 152.4,115.8 153.0,114.7C153.7,113.5 155.6,112.5 157.3,111.6C159.0,110.7 161.8,110.4 163.0,109.4C164.3,108.4 164.7,107.0 165.0,105.7C165.4,104.5 165.0,103.2 164.9,101.9C164.8,100.6 164.0,99.2 164.7,98.0C165.4,96.9 168.3,95.5 169.0,95.0" fill="none" stroke="#d9843a" stroke-width="2.6" stroke-linecap="round" stroke-linejoin="round"/><path d="M41.3,123.3C40.9,123.9 40.1,125.9 38.8,126.9C37.6,128.0 34.8,128.5 33.8,129.6C32.8,130.7 33.6,132.2 32.9,133.4C32.2,134.6 30.8,135.8 29.4,136.8C27.9,137.7 25.6,138.4 24.2,139.3C22.8,140.3 22.4,141.8 20.8,142.7C19.3,143.6 16.3,143.8 14.8,144.7C13.3,145.6 13.3,147.2 11.7,148.1C10.2,149.0 7.0,149.1 5.6,150.0C4.2,150.9 3.8,152.4 3.1,153.6C2.5,154.8 2.3,156.1 1.4,157.3C0.5,158.5 -1.5,160.1 -2.1,160.6" fill="none" stroke="#a5642c" stroke-width="3.9" stroke-linecap="round" stroke-linejoin="round" transform="translate(0 1)"/><path d="M41.3,123.3C40.9,123.9 40.1,125.9 38.8,126.9C37.6,128.0 34.8,128.5 33.8,129.6C32.8,130.7 33.6,132.2 32.9,133.4C32.2,134.6 30.8,135.8 29.4,136.8C27.9,137.7 25.6,138.4 24.2,139.3C22.8,140.3 22.4,141.8 20.8,142.7C19.3,143.6 16.3,143.8 14.8,144.7C13.3,145.6 13.3,147.2 11.7,148.1C10.2,149.0 7.0,149.1 5.6,150.0C4.2,150.9 3.8,152.4 3.1,153.6C2.5,154.8 2.3,156.1 1.4,157.3C0.5,158.5 -1.5,160.1 -2.1,160.6" fill="none" stroke="#d9843a" stroke-width="2.6" stroke-linecap="round" stroke-linejoin="round"/><path d="M106.3,102.4C107.2,102.0 110.4,101.0 111.7,100.0C113.0,99.0 112.7,97.3 114.2,96.4C115.6,95.5 118.2,95.0 120.4,94.6C122.5,94.2 125.0,93.9 127.3,94.0C129.6,94.1 131.7,94.9 134.0,95.1C136.3,95.2 139.0,95.3 141.0,94.8C143.0,94.3 144.5,93.1 146.1,92.2C147.6,91.2 148.5,89.9 150.3,89.1C152.0,88.3 154.2,87.7 156.4,87.2C158.5,86.7 160.8,86.2 163.1,86.2C165.4,86.1 167.7,86.6 170.0,86.9C172.2,87.3 175.5,88.0 176.6,88.3" fill="none" stroke="#a5642c" stroke-width="3.9" stroke-linecap="round" stroke-linejoin="round" transform="translate(0 1)"/><path d="M106.3,102.4C107.2,102.0 110.4,101.0 111.7,100.0C113.0,99.0 112.7,97.3 114.2,96.4C115.6,95.5 118.2,95.0 120.4,94.6C122.5,94.2 125.0,93.9 127.3,94.0C129.6,94.1 131.7,94.9 134.0,95.1C136.3,95.2 139.0,95.3 141.0,94.8C143.0,94.3 144.5,93.1 146.1,92.2C147.6,91.2 148.5,89.9 150.3,89.1C152.0,88.3 154.2,87.7 156.4,87.2C158.5,86.7 160.8,86.2 163.1,86.2C165.4,86.1 167.7,86.6 170.0,86.9C172.2,87.3 175.5,88.0 176.6,88.3" fill="none" stroke="#d9843a" stroke-width="2.6" stroke-linecap="round" stroke-linejoin="round"/><path d="M166.3,69.6C165.4,69.2 162.7,67.9 160.8,67.2C158.9,66.4 156.6,65.9 154.9,65.1C153.2,64.2 152.5,62.7 150.6,62.0C148.7,61.4 146.0,61.6 143.7,61.4C141.4,61.1 138.8,61.1 136.9,60.5C135.0,59.9 133.8,58.6 132.3,57.6C130.9,56.6 129.8,55.3 128.1,54.5C126.4,53.7 123.5,53.5 122.0,52.7C120.4,51.8 119.1,50.4 118.9,49.2C118.7,48.0 119.8,46.6 120.8,45.5C121.8,44.4 124.0,43.6 125.1,42.5C126.2,41.4 126.9,39.4 127.3,38.8" fill="none" stroke="#a5642c" stroke-width="3.9" stroke-linecap="round" stroke-linejoin="round" transform="translate(0 1)"/><path d="M166.3,69.6C165.4,69.2 162.7,67.9 160.8,67.2C158.9,66.4 156.6,65.9 154.9,65.1C153.2,64.2 152.5,62.7 150.6,62.0C148.7,61.4 146.0,61.6 143.7,61.4C141.4,61.1 138.8,61.1 136.9,60.5C135.0,59.9 133.8,58.6 132.3,57.6C130.9,56.6 129.8,55.3 128.1,54.5C126.4,53.7 123.5,53.5 122.0,52.7C120.4,51.8 119.1,50.4 118.9,49.2C118.7,48.0 119.8,46.6 120.8,45.5C121.8,44.4 124.0,43.6 125.1,42.5C126.2,41.4 126.9,39.4 127.3,38.8" fill="none" stroke="#d9843a" stroke-width="2.6" stroke-linecap="round" stroke-linejoin="round"/><path d="M156.3,82.4C155.8,83.0 154.6,84.9 153.1,85.8C151.7,86.8 149.7,87.7 147.6,88.2C145.6,88.7 142.9,88.5 140.8,88.9C138.6,89.4 136.3,90.0 134.8,91.0C133.4,91.9 132.8,93.3 132.2,94.6C131.7,95.8 132.4,97.3 131.5,98.4C130.6,99.5 128.4,100.3 126.9,101.3C125.3,102.2 123.4,103.1 122.2,104.1C120.9,105.2 120.2,106.5 119.4,107.7C118.6,108.9 117.6,110.1 117.6,111.4C117.5,112.6 118.9,113.9 119.2,115.1C119.6,116.4 119.6,118.3 119.7,119.0" fill="none" stroke="#a5642c" stroke-width="3.9" stroke-linecap="round" stroke-linejoin="round" transform="translate(0 1)"/><path d="M156.3,82.4C155.8,83.0 154.6,84.9 153.1,85.8C151.7,86.8 149.7,87.7 147.6,88.2C145.6,88.7 142.9,88.5 140.8,88.9C138.6,89.4 136.3,90.0 134.8,91.0C133.4,91.9 132.8,93.3 132.2,94.6C131.7,95.8 132.4,97.3 131.5,98.4C130.6,99.5 128.4,100.3 126.9,101.3C125.3,102.2 123.4,103.1 122.2,104.1C120.9,105.2 120.2,106.5 119.4,107.7C118.6,108.9 117.6,110.1 117.6,111.4C117.5,112.6 118.9,113.9 119.2,115.1C119.6,116.4 119.6,118.3 119.7,119.0" fill="none" stroke="#d9843a" stroke-width="2.6" stroke-linecap="round" stroke-linejoin="round"/><path d="M62.7,96.1C62.7,95.4 62.2,93.5 62.5,92.2C62.8,90.9 64.5,89.7 64.5,88.5C64.5,87.3 63.3,86.0 62.4,84.9C61.5,83.7 59.9,82.6 59.1,81.5C58.2,80.3 58.3,78.9 57.2,77.7C56.2,76.6 54.7,75.4 52.8,74.8C50.9,74.2 47.9,74.7 45.9,74.1C43.9,73.6 42.0,72.5 40.7,71.5C39.4,70.5 39.0,69.1 38.1,67.9C37.1,66.8 36.6,65.4 35.1,64.5C33.7,63.5 30.8,63.2 29.4,62.2C28.1,61.2 27.6,59.2 27.2,58.6" fill="none" stroke="#a5642c" stroke-width="3.9" stroke-linecap="round" stroke-linejoin="round" transform="translate(0 1)"/><path d="M62.7,96.1C62.7,95.4 62.2,93.5 62.5,92.2C62.8,90.9 64.5,89.7 64.5,88.5C64.5,87.3 63.3,86.0 62.4,84.9C61.5,83.7 59.9,82.6 59.1,81.5C58.2,80.3 58.3,78.9 57.2,77.7C56.2,76.6 54.7,75.4 52.8,74.8C50.9,74.2 47.9,74.7 45.9,74.1C43.9,73.6 42.0,72.5 40.7,71.5C39.4,70.5 39.0,69.1 38.1,67.9C37.1,66.8 36.6,65.4 35.1,64.5C33.7,63.5 30.8,63.2 29.4,62.2C28.1,61.2 27.6,59.2 27.2,58.6" fill="none" stroke="#d9843a" stroke-width="2.6" stroke-linecap="round" stroke-linejoin="round"/><path d="M29.8,135.5C31.0,135.4 34.4,135.2 36.7,134.9C39.0,134.6 41.2,133.9 43.5,133.9C45.7,133.8 48.1,134.5 50.4,134.5C52.7,134.4 55.0,134.0 57.2,133.6C59.3,133.1 61.2,132.2 63.3,131.7C65.5,131.3 67.9,131.2 70.2,130.9C72.5,130.7 74.8,130.5 77.1,130.3C79.4,130.1 81.7,129.9 84.0,129.9C86.4,130.0 88.6,130.4 90.9,130.7C93.2,130.9 95.5,131.2 97.8,131.3C100.2,131.3 102.8,131.6 104.8,131.2C106.9,130.8 109.3,129.1 110.2,128.7" fill="none" stroke="#a5642c" stroke-width="3.9" stroke-linecap="round" stroke-linejoin="round" transform="translate(0 1)"/><path d="M29.8,135.5C31.0,135.4 34.4,135.2 36.7,134.9C39.0,134.6 41.2,133.9 43.5,133.9C45.7,133.8 48.1,134.5 50.4,134.5C52.7,134.4 55.0,134.0 57.2,133.6C59.3,133.1 61.2,132.2 63.3,131.7C65.5,131.3 67.9,131.2 70.2,130.9C72.5,130.7 74.8,130.5 77.1,130.3C79.4,130.1 81.7,129.9 84.0,129.9C86.4,130.0 88.6,130.4 90.9,130.7C93.2,130.9 95.5,131.2 97.8,131.3C100.2,131.3 102.8,131.6 104.8,131.2C106.9,130.8 109.3,129.1 110.2,128.7" fill="none" stroke="#d9843a" stroke-width="2.6" stroke-linecap="round" stroke-linejoin="round"/><path d="M124.8,81.5C123.6,81.5 120.0,81.9 117.8,81.6C115.6,81.3 113.7,80.4 111.6,79.8C109.5,79.2 106.9,78.9 105.4,78.1C103.8,77.2 102.5,75.9 102.1,74.7C101.7,73.5 102.3,72.1 102.8,70.8C103.2,69.6 103.9,68.3 105.0,67.2C106.1,66.1 108.7,65.3 109.4,64.2C110.2,63.1 109.7,61.6 109.3,60.4C109.0,59.1 108.3,57.8 107.4,56.7C106.5,55.5 104.4,54.5 104.0,53.3C103.7,52.1 104.4,50.7 105.2,49.5C105.9,48.3 107.9,46.6 108.4,46.1" fill="none" stroke="#a5642c" stroke-width="3.9" stroke-linecap="round" stroke-linejoin="round" transform="translate(0 1)"/><path d="M124.8,81.5C123.6,81.5 120.0,81.9 117.8,81.6C115.6,81.3 113.7,80.4 111.6,79.8C109.5,79.2 106.9,78.9 105.4,78.1C103.8,77.2 102.5,75.9 102.1,74.7C101.7,73.5 102.3,72.1 102.8,70.8C103.2,69.6 103.9,68.3 105.0,67.2C106.1,66.1 108.7,65.3 109.4,64.2C110.2,63.1 109.7,61.6 109.3,60.4C109.0,59.1 108.3,57.8 107.4,56.7C106.5,55.5 104.4,54.5 104.0,53.3C103.7,52.1 104.4,50.7 105.2,49.5C105.9,48.3 107.9,46.6 108.4,46.1" fill="none" stroke="#d9843a" stroke-width="2.6" stroke-linecap="round" stroke-linejoin="round"/><path d="M76.4,118.3C76.7,117.7 77.0,115.8 77.9,114.6C78.7,113.4 80.3,112.4 81.6,111.3C82.9,110.3 84.4,109.3 85.7,108.2C87.1,107.2 88.0,105.8 89.9,105.1C91.7,104.4 94.4,104.0 96.6,104.1C98.8,104.2 101.4,104.9 103.0,105.7C104.6,106.6 104.8,108.3 106.4,109.1C108.0,110.0 110.8,110.1 112.6,110.9C114.3,111.7 115.4,112.9 116.9,113.9C118.5,114.9 119.8,116.1 121.7,116.7C123.6,117.4 126.2,117.5 128.4,117.7C130.7,118.0 134.2,118.1 135.4,118.2" fill="none" stroke="#a5642c" stroke-width="3.9" stroke-linecap="round" stroke-linejoin="round" transform="translate(0 1)"/><path d="M76.4,118.3C76.7,117.7 77.0,115.8 77.9,114.6C78.7,113.4 80.3,112.4 81.6,111.3C82.9,110.3 84.4,109.3 85.7,108.2C87.1,107.2 88.0,105.8 89.9,105.1C91.7,104.4 94.4,104.0 96.6,104.1C98.8,104.2 101.4,104.9 103.0,105.7C104.6,106.6 104.8,108.3 106.4,109.1C108.0,110.0 110.8,110.1 112.6,110.9C114.3,111.7 115.4,112.9 116.9,113.9C118.5,114.9 119.8,116.1 121.7,116.7C123.6,117.4 126.2,117.5 128.4,117.7C130.7,118.0 134.2,118.1 135.4,118.2" fill="none" stroke="#d9843a" stroke-width="2.6" stroke-linecap="round" stroke-linejoin="round"/><path d="M62.6,56.8C62.8,56.2 64.1,54.3 63.8,53.0C63.5,51.8 61.4,50.8 60.8,49.6C60.2,48.3 59.6,46.9 60.1,45.7C60.7,44.6 62.4,43.4 64.0,42.5C65.6,41.6 68.1,41.2 69.8,40.4C71.6,39.6 72.8,38.4 74.6,37.6C76.3,36.7 78.4,36.1 80.3,35.3C82.2,34.6 84.8,34.1 86.0,33.1C87.2,32.1 86.5,30.5 87.5,29.3C88.4,28.2 91.0,27.4 91.6,26.2C92.1,25.1 91.7,23.5 90.8,22.4C89.9,21.3 86.9,20.0 86.2,19.5" fill="none" stroke="#a5642c" stroke-width="3.9" stroke-linecap="round" stroke-linejoin="round" transform="translate(0 1)"/><path d="M62.6,56.8C62.8,56.2 64.1,54.3 63.8,53.0C63.5,51.8 61.4,50.8 60.8,49.6C60.2,48.3 59.6,46.9 60.1,45.7C60.7,44.6 62.4,43.4 64.0,42.5C65.6,41.6 68.1,41.2 69.8,40.4C71.6,39.6 72.8,38.4 74.6,37.6C76.3,36.7 78.4,36.1 80.3,35.3C82.2,34.6 84.8,34.1 86.0,33.1C87.2,32.1 86.5,30.5 87.5,29.3C88.4,28.2 91.0,27.4 91.6,26.2C92.1,25.1 91.7,23.5 90.8,22.4C89.9,21.3 86.9,20.0 86.2,19.5" fill="none" stroke="#d9843a" stroke-width="2.6" stroke-linecap="round" stroke-linejoin="round"/><path d="M56.4,55.3C55.5,54.9 52.8,53.7 51.0,52.9C49.2,52.1 47.5,51.2 45.8,50.3C44.2,49.4 42.9,48.3 41.1,47.5C39.3,46.7 37.2,45.7 35.0,45.5C32.9,45.3 30.5,46.2 28.2,46.2C25.9,46.2 23.6,45.5 21.3,45.5C19.0,45.5 16.8,46.2 14.5,46.4C12.2,46.5 9.8,46.2 7.5,46.2C5.2,46.3 2.7,46.4 0.5,46.7C-1.6,47.1 -3.8,47.7 -5.6,48.4C-7.5,49.2 -8.6,50.4 -10.3,51.3C-12.0,52.2 -14.8,53.4 -15.6,53.8" fill="none" stroke="#a5642c" stroke-width="3.9" stroke-linecap="round" stroke-linejoin="round" transform="translate(0 1)"/><path d="M56.4,55.3C55.5,54.9 52.8,53.7 51.0,52.9C49.2,52.1 47.5,51.2 45.8,50.3C44.2,49.4 42.9,48.3 41.1,47.5C39.3,46.7 37.2,45.7 35.0,45.5C32.9,45.3 30.5,46.2 28.2,46.2C25.9,46.2 23.6,45.5 21.3,45.5C19.0,45.5 16.8,46.2 14.5,46.4C12.2,46.5 9.8,46.2 7.5,46.2C5.2,46.3 2.7,46.4 0.5,46.7C-1.6,47.1 -3.8,47.7 -5.6,48.4C-7.5,49.2 -8.6,50.4 -10.3,51.3C-12.0,52.2 -14.8,53.4 -15.6,53.8" fill="none" stroke="#d9843a" stroke-width="2.6" stroke-linecap="round" stroke-linejoin="round"/><path d="M103.5,113.1C102.9,113.7 101.0,115.3 99.6,116.3C98.2,117.3 96.8,118.4 95.0,119.3C93.3,120.1 91.1,120.6 89.0,121.2C87.0,121.9 85.1,122.7 82.9,123.1C80.7,123.5 78.3,123.6 76.1,123.9C73.8,124.1 71.3,124.2 69.2,124.7C67.1,125.2 65.6,126.3 63.5,126.9C61.4,127.5 59.0,127.6 56.8,128.0C54.6,128.5 52.5,129.1 50.4,129.6C48.3,130.1 46.1,130.6 44.0,131.1C41.8,131.6 39.3,131.9 37.6,132.7C35.9,133.5 34.4,135.4 33.7,135.9" fill="none" stroke="#a5642c" stroke-width="3.9" stroke-linecap="round" stroke-linejoin="round" transform="translate(0 1)"/><path d="M103.5,113.1C102.9,113.7 101.0,115.3 99.6,116.3C98.2,117.3 96.8,118.4 95.0,119.3C93.3,120.1 91.1,120.6 89.0,121.2C87.0,121.9 85.1,122.7 82.9,123.1C80.7,123.5 78.3,123.6 76.1,123.9C73.8,124.1 71.3,124.2 69.2,124.7C67.1,125.2 65.6,126.3 63.5,126.9C61.4,127.5 59.0,127.6 56.8,128.0C54.6,128.5 52.5,129.1 50.4,129.6C48.3,130.1 46.1,130.6 44.0,131.1C41.8,131.6 39.3,131.9 37.6,132.7C35.9,133.5 34.4,135.4 33.7,135.9" fill="none" stroke="#d9843a" stroke-width="2.6" stroke-linecap="round" stroke-linejoin="round"/><path d="M104.3,89.3C104.9,88.7 106.2,86.7 107.9,86.0C109.6,85.2 112.4,85.3 114.6,84.8C116.8,84.4 118.9,83.8 121.1,83.5C123.4,83.1 126.0,82.7 128.1,83.0C130.2,83.3 131.9,84.5 133.8,85.2C135.7,86.0 137.5,86.9 139.6,87.4C141.6,87.9 144.0,88.3 146.3,88.4C148.6,88.6 151.1,88.5 153.3,88.3C155.6,88.0 157.6,87.0 159.8,86.9C162.1,86.7 164.4,87.2 166.7,87.4C169.1,87.6 171.6,87.5 173.7,88.0C175.8,88.4 178.5,89.8 179.5,90.1" fill="none" stroke="#a5642c" stroke-width="3.9" stroke-linecap="round" stroke-linejoin="round" transform="translate(0 1)"/><path d="M104.3,89.3C104.9,88.7 106.2,86.7 107.9,86.0C109.6,85.2 112.4,85.3 114.6,84.8C116.8,84.4 118.9,83.8 121.1,83.5C123.4,83.1 126.0,82.7 128.1,83.0C130.2,83.3 131.9,84.5 133.8,85.2C135.7,86.0 137.5,86.9 139.6,87.4C141.6,87.9 144.0,88.3 146.3,88.4C148.6,88.6 151.1,88.5 153.3,88.3C155.6,88.0 157.6,87.0 159.8,86.9C162.1,86.7 164.4,87.2 166.7,87.4C169.1,87.6 171.6,87.5 173.7,88.0C175.8,88.4 178.5,89.8 179.5,90.1" fill="none" stroke="#d9843a" stroke-width="2.6" stroke-linecap="round" stroke-linejoin="round"/><path d="M90.5,140.2C89.5,139.9 86.1,139.2 84.3,138.5C82.5,137.7 81.6,136.2 79.7,135.6C77.8,135.0 75.0,134.6 72.8,134.8C70.6,134.9 68.8,136.2 66.6,136.5C64.4,136.9 61.9,136.9 59.6,136.9C57.3,136.8 55.1,136.2 52.8,136.0C50.5,135.8 47.9,136.0 45.9,135.5C43.9,135.0 41.7,133.9 40.7,132.9C39.8,131.8 39.9,130.3 40.1,129.0C40.2,127.8 41.9,126.5 41.8,125.3C41.8,124.1 41.2,122.6 39.9,121.6C38.7,120.6 35.3,119.7 34.3,119.3" fill="none" stroke="#a5642c" stroke-width="3.9" stroke-linecap="round" stroke-linejoin="round" transform="translate(0 1)"/><path d="M90.5,140.2C89.5,139.9 86.1,139.2 84.3,138.5C82.5,137.7 81.6,136.2 79.7,135.6C77.8,135.0 75.0,134.6 72.8,134.8C70.6,134.9 68.8,136.2 66.6,136.5C64.4,136.9 61.9,136.9 59.6,136.9C57.3,136.8 55.1,136.2 52.8,136.0C50.5,135.8 47.9,136.0 45.9,135.5C43.9,135.0 41.7,133.9 40.7,132.9C39.8,131.8 39.9,130.3 40.1,129.0C40.2,127.8 41.9,126.5 41.8,125.3C41.8,124.1 41.2,122.6 39.9,121.6C38.7,120.6 35.3,119.7 34.3,119.3" fill="none" stroke="#d9843a" stroke-width="2.6" stroke-linecap="round" stroke-linejoin="round"/><path d="M105.6,88.3C104.7,88.7 102.0,89.9 100.3,90.8C98.5,91.6 96.3,92.3 95.0,93.3C93.6,94.3 93.3,95.7 92.2,96.8C91.0,97.9 89.6,99.0 88.0,99.9C86.4,100.8 84.5,101.7 82.5,102.3C80.4,102.9 78.0,103.0 75.8,103.4C73.6,103.8 71.5,104.4 69.3,104.8C67.1,105.3 64.9,106.2 62.7,106.2C60.6,106.2 58.3,105.3 56.3,104.7C54.2,104.1 51.8,103.6 50.4,102.6C49.0,101.7 48.0,100.2 47.9,99.0C47.7,97.8 49.2,95.9 49.5,95.3" fill="none" stroke="#a5642c" stroke-width="3.9" stroke-linecap="round" stroke-linejoin="round" transform="translate(0 1)"/><path d="M105.6,88.3C104.7,88.7 102.0,89.9 100.3,90.8C98.5,91.6 96.3,92.3 95.0,93.3C93.6,94.3 93.3,95.7 92.2,96.8C91.0,97.9 89.6,99.0 88.0,99.9C86.4,100.8 84.5,101.7 82.5,102.3C80.4,102.9 78.0,103.0 75.8,103.4C73.6,103.8 71.5,104.4 69.3,104.8C67.1,105.3 64.9,106.2 62.7,106.2C60.6,106.2 58.3,105.3 56.3,104.7C54.2,104.1 51.8,103.6 50.4,102.6C49.0,101.7 48.0,100.2 47.9,99.0C47.7,97.8 49.2,95.9 49.5,95.3" fill="none" stroke="#d9843a" stroke-width="2.6" stroke-linecap="round" stroke-linejoin="round"/><path d="M97.4,56.8C96.3,56.7 92.5,56.6 90.5,56.0C88.6,55.5 86.6,54.5 85.4,53.4C84.3,52.3 83.5,50.9 83.7,49.7C84.0,48.5 86.3,47.5 87.0,46.3C87.8,45.1 88.0,43.8 88.3,42.5C88.6,41.2 88.5,39.9 88.8,38.6C89.1,37.4 89.3,36.1 89.8,34.8C90.3,33.6 91.1,32.4 91.9,31.2C92.8,30.0 93.9,28.8 95.1,27.7C96.4,26.7 98.0,25.7 99.6,24.8C101.3,23.9 103.2,23.1 105.0,22.3C106.9,21.6 109.9,20.6 110.8,20.2" fill="none" stroke="#a5642c" stroke-width="3.9" stroke-linecap="round" stroke-linejoin="round" transform="translate(0 1)"/><path d="M97.4,56.8C96.3,56.7 92.5,56.6 90.5,56.0C88.6,55.5 86.6,54.5 85.4,53.4C84.3,52.3 83.5,50.9 83.7,49.7C84.0,48.5 86.3,47.5 87.0,46.3C87.8,45.1 88.0,43.8 88.3,42.5C88.6,41.2 88.5,39.9 88.8,38.6C89.1,37.4 89.3,36.1 89.8,34.8C90.3,33.6 91.1,32.4 91.9,31.2C92.8,30.0 93.9,28.8 95.1,27.7C96.4,26.7 98.0,25.7 99.6,24.8C101.3,23.9 103.2,23.1 105.0,22.3C106.9,21.6 109.9,20.6 110.8,20.2" fill="none" stroke="#d9843a" stroke-width="2.6" stroke-linecap="round" stroke-linejoin="round"/><path d="M170.3,121.3C169.1,121.1 165.3,121.0 163.4,120.4C161.6,119.8 160.7,118.3 159.1,117.4C157.4,116.5 154.8,116.0 153.6,115.0C152.4,114.0 152.7,112.4 151.8,111.3C150.9,110.1 149.3,109.1 148.1,108.0C146.9,106.9 145.0,105.9 144.5,104.7C144.0,103.5 144.7,102.2 144.9,100.9C145.2,99.6 145.1,98.3 145.8,97.1C146.6,95.9 147.9,94.7 149.3,93.7C150.7,92.7 152.2,91.6 154.2,91.0C156.2,90.4 158.8,90.4 161.1,90.2C163.4,90.1 166.9,90.1 168.1,90.0" fill="none" stroke="#a5642c" stroke-width="3.9" stroke-linecap="round" stroke-linejoin="round" transform="translate(0 1)"/><path d="M170.3,121.3C169.1,121.1 165.3,121.0 163.4,120.4C161.6,119.8 160.7,118.3 159.1,117.4C157.4,116.5 154.8,116.0 153.6,115.0C152.4,114.0 152.7,112.4 151.8,111.3C150.9,110.1 149.3,109.1 148.1,108.0C146.9,106.9 145.0,105.9 144.5,104.7C144.0,103.5 144.7,102.2 144.9,100.9C145.2,99.6 145.1,98.3 145.8,97.1C146.6,95.9 147.9,94.7 149.3,93.7C150.7,92.7 152.2,91.6 154.2,91.0C156.2,90.4 158.8,90.4 161.1,90.2C163.4,90.1 166.9,90.1 168.1,90.0" fill="none" stroke="#d9843a" stroke-width="2.6" stroke-linecap="round" stroke-linejoin="round"/><path d="M152.3,103.3C151.2,103.1 147.9,102.4 145.7,102.1C143.4,101.7 141.1,101.4 138.8,101.3C136.5,101.2 134.0,101.7 131.8,101.4C129.6,101.1 127.4,100.5 125.5,99.7C123.6,99.0 122.3,97.9 120.6,97.0C119.0,96.1 116.9,95.3 115.6,94.3C114.3,93.3 114.4,91.6 112.9,90.7C111.5,89.8 108.9,89.2 106.7,89.0C104.5,88.7 102.0,89.3 99.7,89.1C97.4,89.0 95.2,88.2 93.0,88.1C90.7,88.1 88.2,88.4 86.1,88.8C84.0,89.3 81.2,90.6 80.2,91.0" fill="none" stroke="#a5642c" stroke-width="3.9" stroke-linecap="round" stroke-linejoin="round" transform="translate(0 1)"/><path d="M152.3,103.3C151.2,103.1 147.9,102.4 145.7,102.1C143.4,101.7 141.1,101.4 138.8,101.3C136.5,101.2 134.0,101.7 131.8,101.4C129.6,101.1 127.4,100.5 125.5,99.7C123.6,99.0 122.3,97.9 120.6,97.0C119.0,96.1 116.9,95.3 115.6,94.3C114.3,93.3 114.4,91.6 112.9,90.7C111.5,89.8 108.9,89.2 106.7,89.0C104.5,88.7 102.0,89.3 99.7,89.1C97.4,89.0 95.2,88.2 93.0,88.1C90.7,88.1 88.2,88.4 86.1,88.8C84.0,89.3 81.2,90.6 80.2,91.0" fill="none" stroke="#d9843a" stroke-width="2.6" stroke-linecap="round" stroke-linejoin="round"/><path d="M104.4,94.4C103.8,93.9 102.3,92.0 100.5,91.2C98.7,90.5 96.1,90.1 93.9,90.0C91.6,89.9 89.1,90.2 87.0,90.7C84.9,91.2 83.4,92.4 81.4,93.0C79.3,93.6 76.9,93.7 74.7,94.2C72.5,94.7 70.4,95.2 68.3,95.8C66.3,96.3 64.3,97.1 62.2,97.6C60.0,98.0 57.5,98.0 55.3,98.5C53.2,98.9 51.4,100.1 49.2,100.3C47.0,100.5 44.6,99.7 42.3,99.6C40.0,99.5 37.5,99.2 35.3,99.5C33.2,99.8 30.2,101.1 29.2,101.4" fill="none" stroke="#a5642c" stroke-width="3.9" stroke-linecap="round" stroke-linejoin="round" transform="translate(0 1)"/><path d="M104.4,94.4C103.8,93.9 102.3,92.0 100.5,91.2C98.7,90.5 96.1,90.1 93.9,90.0C91.6,89.9 89.1,90.2 87.0,90.7C84.9,91.2 83.4,92.4 81.4,93.0C79.3,93.6 76.9,93.7 74.7,94.2C72.5,94.7 70.4,95.2 68.3,95.8C66.3,96.3 64.3,97.1 62.2,97.6C60.0,98.0 57.5,98.0 55.3,98.5C53.2,98.9 51.4,100.1 49.2,100.3C47.0,100.5 44.6,99.7 42.3,99.6C40.0,99.5 37.5,99.2 35.3,99.5C33.2,99.8 30.2,101.1 29.2,101.4" fill="none" stroke="#d9843a" stroke-width="2.6" stroke-linecap="round" stroke-linejoin="round"/><path d="M122.8,112.2C122.8,111.5 122.4,109.5 122.9,108.3C123.5,107.1 125.4,106.1 126.3,104.9C127.1,103.8 127.4,102.5 128.1,101.2C128.7,100.0 128.8,98.5 130.1,97.6C131.5,96.6 134.4,96.3 136.0,95.4C137.6,94.5 138.1,93.1 139.6,92.2C141.1,91.2 143.0,90.3 145.0,89.7C146.9,89.0 149.2,88.6 151.3,88.0C153.4,87.4 155.2,86.6 157.4,86.1C159.5,85.6 161.8,85.3 164.1,85.1C166.4,84.8 169.1,85.1 171.0,84.6C173.0,84.0 175.0,82.2 175.8,81.8" fill="none" stroke="#a5642c" stroke-width="3.9" stroke-linecap="round" stroke-linejoin="round" transform="translate(0 1)"/><path d="M122.8,112.2C122.8,111.5 122.4,109.5 122.9,108.3C123.5,107.1 125.4,106.1 126.3,104.9C127.1,103.8 127.4,102.5 128.1,101.2C128.7,100.0 128.8,98.5 130.1,97.6C131.5,96.6 134.4,96.3 136.0,95.4C137.6,94.5 138.1,93.1 139.6,92.2C141.1,91.2 143.0,90.3 145.0,89.7C146.9,89.0 149.2,88.6 151.3,88.0C153.4,87.4 155.2,86.6 157.4,86.1C159.5,85.6 161.8,85.3 164.1,85.1C166.4,84.8 169.1,85.1 171.0,84.6C173.0,84.0 175.0,82.2 175.8,81.8" fill="none" stroke="#d9843a" stroke-width="2.6" stroke-linecap="round" stroke-linejoin="round"/><path d="M108.7,119.7C108.9,120.3 109.6,122.2 110.0,123.5C110.4,124.7 111.3,126.1 110.9,127.3C110.5,128.5 109.2,129.8 107.6,130.7C106.1,131.6 103.8,132.3 101.7,132.7C99.5,133.2 97.1,133.2 94.8,133.3C92.5,133.5 90.1,133.5 87.8,133.7C85.5,133.9 82.8,134.0 81.1,134.7C79.3,135.5 77.9,136.8 77.3,138.0C76.7,139.2 77.0,140.6 77.2,141.8C77.3,143.1 77.7,144.4 78.2,145.6C78.7,146.9 79.9,148.1 80.4,149.3C80.9,150.5 81.1,152.5 81.2,153.1" fill="none" stroke="#a5642c" stroke-width="3.9" stroke-linecap="round" stroke-linejoin="round" transform="translate(0 1)"/><path d="M108.7,119.7C108.9,120.3 109.6,122.2 110.0,123.5C110.4,124.7 111.3,126.1 110.9,127.3C110.5,128.5 109.2,129.8 107.6,130.7C106.1,131.6 103.8,132.3 101.7,132.7C99.5,133.2 97.1,133.2 94.8,133.3C92.5,133.5 90.1,133.5 87.8,133.7C85.5,133.9 82.8,134.0 81.1,134.7C79.3,135.5 77.9,136.8 77.3,138.0C76.7,139.2 77.0,140.6 77.2,141.8C77.3,143.1 77.7,144.4 78.2,145.6C78.7,146.9 79.9,148.1 80.4,149.3C80.9,150.5 81.1,152.5 81.2,153.1" fill="none" stroke="#d9843a" stroke-width="2.6" stroke-linecap="round" stroke-linejoin="round"/><path d="M74.0,92.4C73.1,92.8 70.3,93.9 68.7,94.8C67.1,95.8 66.2,97.1 64.4,97.9C62.7,98.7 60.1,98.8 58.0,99.4C55.9,100.0 54.2,101.2 52.0,101.4C49.9,101.6 47.4,100.6 45.1,100.8C42.9,100.9 40.9,101.8 38.7,102.2C36.5,102.7 33.7,102.7 32.0,103.4C30.3,104.2 29.7,105.6 28.5,106.8C27.4,107.9 26.5,109.1 25.2,110.1C23.8,111.2 22.1,112.1 20.5,113.0C19.0,114.0 17.2,114.8 15.7,115.8C14.2,116.8 12.3,118.4 11.6,118.9" fill="none" stroke="#a5642c" stroke-width="3.9" stroke-linecap="round" stroke-linejoin="round" transform="translate(0 1)"/><path d="M74.0,92.4C73.1,92.8 70.3,93.9 68.7,94.8C67.1,95.8 66.2,97.1 64.4,97.9C62.7,98.7 60.1,98.8 58.0,99.4C55.9,100.0 54.2,101.2 52.0,101.4C49.9,101.6 47.4,100.6 45.1,100.8C42.9,100.9 40.9,101.8 38.7,102.2C36.5,102.7 33.7,102.7 32.0,103.4C30.3,104.2 29.7,105.6 28.5,106.8C27.4,107.9 26.5,109.1 25.2,110.1C23.8,111.2 22.1,112.1 20.5,113.0C19.0,114.0 17.2,114.8 15.7,115.8C14.2,116.8 12.3,118.4 11.6,118.9" fill="none" stroke="#d9843a" stroke-width="2.6" stroke-linecap="round" stroke-linejoin="round"/><path d="M50.7,77.3C49.5,77.5 45.8,77.7 43.9,78.3C42.0,79.0 40.3,80.1 39.3,81.2C38.3,82.3 37.8,83.8 38.0,85.0C38.2,86.2 40.4,87.4 40.4,88.6C40.3,89.8 37.9,91.0 37.8,92.2C37.8,93.4 38.7,94.9 40.0,95.9C41.2,96.9 43.3,97.8 45.4,98.3C47.4,98.8 50.1,98.6 52.3,99.1C54.4,99.5 56.4,100.3 58.5,100.8C60.6,101.4 62.8,101.9 64.8,102.5C66.8,103.1 68.5,104.2 70.7,104.6C72.8,105.0 76.5,104.7 77.7,104.7" fill="none" stroke="#a5642c" stroke-width="3.9" stroke-linecap="round" stroke-linejoin="round" transform="translate(0 1)"/><path d="M50.7,77.3C49.5,77.5 45.8,77.7 43.9,78.3C42.0,79.0 40.3,80.1 39.3,81.2C38.3,82.3 37.8,83.8 38.0,85.0C38.2,86.2 40.4,87.4 40.4,88.6C40.3,89.8 37.9,91.0 37.8,92.2C37.8,93.4 38.7,94.9 40.0,95.9C41.2,96.9 43.3,97.8 45.4,98.3C47.4,98.8 50.1,98.6 52.3,99.1C54.4,99.5 56.4,100.3 58.5,100.8C60.6,101.4 62.8,101.9 64.8,102.5C66.8,103.1 68.5,104.2 70.7,104.6C72.8,105.0 76.5,104.7 77.7,104.7" fill="none" stroke="#d9843a" stroke-width="2.6" stroke-linecap="round" stroke-linejoin="round"/><path d="M82.7,118.5C82.1,119.0 79.7,120.5 78.7,121.6C77.7,122.8 78.2,124.4 77.0,125.3C75.7,126.3 73.2,126.9 71.2,127.5C69.1,128.1 66.8,128.4 64.7,128.9C62.6,129.5 60.6,130.2 58.5,130.7C56.3,131.2 54.1,131.7 51.8,131.9C49.6,132.2 47.1,132.3 44.8,132.1C42.6,131.9 40.6,130.7 38.4,130.6C36.2,130.5 33.5,131.0 31.7,131.7C29.8,132.4 28.9,133.8 27.4,134.7C25.9,135.7 24.5,137.0 22.6,137.5C20.6,138.1 16.8,137.9 15.6,138.0" fill="none" stroke="#a5642c" stroke-width="3.9" stroke-linecap="round" stroke-linejoin="round" transform="translate(0 1)"/><path d="M82.7,118.5C82.1,119.0 79.7,120.5 78.7,121.6C77.7,122.8 78.2,124.4 77.0,125.3C75.7,126.3 73.2,126.9 71.2,127.5C69.1,128.1 66.8,128.4 64.7,128.9C62.6,129.5 60.6,130.2 58.5,130.7C56.3,131.2 54.1,131.7 51.8,131.9C49.6,132.2 47.1,132.3 44.8,132.1C42.6,131.9 40.6,130.7 38.4,130.6C36.2,130.5 33.5,131.0 31.7,131.7C29.8,132.4 28.9,133.8 27.4,134.7C25.9,135.7 24.5,137.0 22.6,137.5C20.6,138.1 16.8,137.9 15.6,138.0" fill="none" stroke="#d9843a" stroke-width="2.6" stroke-linecap="round" stroke-linejoin="round"/><path d="M86.8,88.3C86.7,87.7 86.7,85.7 86.3,84.5C85.8,83.2 84.9,82.0 84.0,80.9C83.1,79.7 81.8,78.6 80.7,77.4C79.7,76.3 78.3,75.2 77.8,74.0C77.3,72.7 77.3,71.3 77.7,70.1C78.2,68.9 79.3,67.6 80.7,66.6C82.1,65.6 84.0,64.7 85.9,64.1C87.9,63.5 90.4,63.3 92.7,63.0C95.0,62.7 97.3,62.5 99.6,62.5C101.9,62.6 104.2,63.1 106.4,63.5C108.6,63.9 110.6,64.8 112.8,65.1C115.0,65.3 118.6,64.8 119.8,64.7" fill="none" stroke="#a5642c" stroke-width="3.9" stroke-linecap="round" stroke-linejoin="round" transform="translate(0 1)"/><path d="M86.8,88.3C86.7,87.7 86.7,85.7 86.3,84.5C85.8,83.2 84.9,82.0 84.0,80.9C83.1,79.7 81.8,78.6 80.7,77.4C79.7,76.3 78.3,75.2 77.8,74.0C77.3,72.7 77.3,71.3 77.7,70.1C78.2,68.9 79.3,67.6 80.7,66.6C82.1,65.6 84.0,64.7 85.9,64.1C87.9,63.5 90.4,63.3 92.7,63.0C95.0,62.7 97.3,62.5 99.6,62.5C101.9,62.6 104.2,63.1 106.4,63.5C108.6,63.9 110.6,64.8 112.8,65.1C115.0,65.3 118.6,64.8 119.8,64.7" fill="none" stroke="#d9843a" stroke-width="2.6" stroke-linecap="round" stroke-linejoin="round"/><path d="M160.5,134.7C160.4,135.4 160.9,137.4 160.4,138.6C159.8,139.8 158.4,140.9 157.1,142.0C155.9,143.1 154.4,144.1 152.9,145.1C151.4,146.0 149.9,147.3 148.0,147.8C146.0,148.3 143.3,148.2 141.0,148.3C138.7,148.4 136.4,148.5 134.0,148.6C131.7,148.6 129.3,148.2 127.0,148.4C124.8,148.5 122.6,149.1 120.4,149.6C118.2,150.0 116.0,150.5 113.9,151.0C111.8,151.6 109.8,152.2 107.7,152.8C105.6,153.4 103.6,154.2 101.4,154.5C99.2,154.8 95.6,154.6 94.4,154.6" fill="none" stroke="#a5642c" stroke-width="3.9" stroke-linecap="round" stroke-linejoin="round" transform="translate(0 1)"/><path d="M160.5,134.7C160.4,135.4 160.9,137.4 160.4,138.6C159.8,139.8 158.4,140.9 157.1,142.0C155.9,143.1 154.4,144.1 152.9,145.1C151.4,146.0 149.9,147.3 148.0,147.8C146.0,148.3 143.3,148.2 141.0,148.3C138.7,148.4 136.4,148.5 134.0,148.6C131.7,148.6 129.3,148.2 127.0,148.4C124.8,148.5 122.6,149.1 120.4,149.6C118.2,150.0 116.0,150.5 113.9,151.0C111.8,151.6 109.8,152.2 107.7,152.8C105.6,153.4 103.6,154.2 101.4,154.5C99.2,154.8 95.6,154.6 94.4,154.6" fill="none" stroke="#d9843a" stroke-width="2.6" stroke-linecap="round" stroke-linejoin="round"/><path d="M95.7,110.1C95.8,110.8 96.9,112.8 96.2,114.0C95.6,115.1 93.1,115.9 91.9,117.0C90.8,118.1 89.6,119.3 89.1,120.5C88.7,121.8 89.5,123.1 89.2,124.4C88.9,125.7 88.5,127.1 87.3,128.1C86.0,129.1 83.5,129.6 81.7,130.4C79.9,131.2 78.2,132.1 76.4,132.9C74.6,133.7 73.0,134.8 70.9,135.3C68.9,135.9 66.4,136.0 64.1,136.2C61.9,136.5 59.1,136.3 57.3,136.9C55.4,137.6 54.5,139.0 52.9,139.9C51.2,140.8 48.3,142.0 47.4,142.4" fill="none" stroke="#a5642c" stroke-width="3.9" stroke-linecap="round" stroke-linejoin="round" transform="translate(0 1)"/><path d="M95.7,110.1C95.8,110.8 96.9,112.8 96.2,114.0C95.6,115.1 93.1,115.9 91.9,117.0C90.8,118.1 89.6,119.3 89.1,120.5C88.7,121.8 89.5,123.1 89.2,124.4C88.9,125.7 88.5,127.1 87.3,128.1C86.0,129.1 83.5,129.6 81.7,130.4C79.9,131.2 78.2,132.1 76.4,132.9C74.6,133.7 73.0,134.8 70.9,135.3C68.9,135.9 66.4,136.0 64.1,136.2C61.9,136.5 59.1,136.3 57.3,136.9C55.4,137.6 54.5,139.0 52.9,139.9C51.2,140.8 48.3,142.0 47.4,142.4" fill="none" stroke="#d9843a" stroke-width="2.6" stroke-linecap="round" stroke-linejoin="round"/><path d="M136.5,121.7C137.6,121.4 140.8,120.7 142.9,120.1C145.0,119.5 147.4,119.1 149.0,118.3C150.7,117.4 151.6,116.1 152.7,115.0C153.9,113.9 154.6,112.6 156.0,111.6C157.4,110.6 159.8,110.0 161.1,108.9C162.4,107.9 162.5,106.4 163.8,105.4C165.1,104.4 167.3,103.7 169.0,102.8C170.8,102.0 173.1,101.4 174.4,100.3C175.7,99.3 176.6,98.0 176.8,96.7C177.0,95.5 176.6,94.0 175.5,92.9C174.5,91.9 171.6,91.3 170.6,90.2C169.6,89.1 169.7,87.0 169.6,86.4" fill="none" stroke="#a5642c" stroke-width="3.9" stroke-linecap="round" stroke-linejoin="round" transform="translate(0 1)"/><path d="M136.5,121.7C137.6,121.4 140.8,120.7 142.9,120.1C145.0,119.5 147.4,119.1 149.0,118.3C150.7,117.4 151.6,116.1 152.7,115.0C153.9,113.9 154.6,112.6 156.0,111.6C157.4,110.6 159.8,110.0 161.1,108.9C162.4,107.9 162.5,106.4 163.8,105.4C165.1,104.4 167.3,103.7 169.0,102.8C170.8,102.0 173.1,101.4 174.4,100.3C175.7,99.3 176.6,98.0 176.8,96.7C177.0,95.5 176.6,94.0 175.5,92.9C174.5,91.9 171.6,91.3 170.6,90.2C169.6,89.1 169.7,87.0 169.6,86.4" fill="none" stroke="#d9843a" stroke-width="2.6" stroke-linecap="round" stroke-linejoin="round"/><path d="M110.1,84.2C109.3,83.7 107.1,82.2 105.3,81.4C103.6,80.5 101.4,80.0 99.7,79.1C98.0,78.2 96.1,77.2 95.3,76.1C94.5,74.9 94.6,73.4 95.0,72.2C95.4,71.0 97.5,69.9 97.7,68.7C97.8,67.4 96.8,66.1 95.9,64.9C94.9,63.8 92.7,62.9 92.0,61.7C91.3,60.6 92.1,59.2 91.7,57.9C91.3,56.6 90.0,55.5 89.6,54.2C89.1,53.0 89.2,51.7 89.2,50.4C89.1,49.1 89.4,47.8 89.0,46.5C88.6,45.3 87.0,43.5 86.6,42.9" fill="none" stroke="#a5642c" stroke-width="3.9" stroke-linecap="round" stroke-linejoin="round" transform="translate(0 1)"/><path d="M110.1,84.2C109.3,83.7 107.1,82.2 105.3,81.4C103.6,80.5 101.4,80.0 99.7,79.1C98.0,78.2 96.1,77.2 95.3,76.1C94.5,74.9 94.6,73.4 95.0,72.2C95.4,71.0 97.5,69.9 97.7,68.7C97.8,67.4 96.8,66.1 95.9,64.9C94.9,63.8 92.7,62.9 92.0,61.7C91.3,60.6 92.1,59.2 91.7,57.9C91.3,56.6 90.0,55.5 89.6,54.2C89.1,53.0 89.2,51.7 89.2,50.4C89.1,49.1 89.4,47.8 89.0,46.5C88.6,45.3 87.0,43.5 86.6,42.9" fill="none" stroke="#d9843a" stroke-width="2.6" stroke-linecap="round" stroke-linejoin="round"/><path d="M92.0,81.9C91.1,81.6 87.6,80.8 86.2,79.8C84.7,78.9 84.2,77.5 83.2,76.4C82.2,75.2 81.3,74.0 80.2,72.9C79.2,71.7 77.3,70.7 77.0,69.5C76.7,68.3 78.1,67.0 78.6,65.7C79.0,64.5 79.6,63.2 79.8,61.9C79.9,60.6 78.9,59.3 79.2,58.1C79.6,56.8 80.9,55.7 81.7,54.5C82.6,53.3 84.0,52.1 84.3,50.9C84.6,49.7 84.4,48.2 83.6,47.1C82.8,45.9 81.3,44.7 79.6,43.9C77.9,43.1 74.4,42.4 73.4,42.1" fill="none" stroke="#a5642c" stroke-width="3.9" stroke-linecap="round" stroke-linejoin="round" transform="translate(0 1)"/><path d="M92.0,81.9C91.1,81.6 87.6,80.8 86.2,79.8C84.7,78.9 84.2,77.5 83.2,76.4C82.2,75.2 81.3,74.0 80.2,72.9C79.2,71.7 77.3,70.7 77.0,69.5C76.7,68.3 78.1,67.0 78.6,65.7C79.0,64.5 79.6,63.2 79.8,61.9C79.9,60.6 78.9,59.3 79.2,58.1C79.6,56.8 80.9,55.7 81.7,54.5C82.6,53.3 84.0,52.1 84.3,50.9C84.6,49.7 84.4,48.2 83.6,47.1C82.8,45.9 81.3,44.7 79.6,43.9C77.9,43.1 74.4,42.4 73.4,42.1" fill="none" stroke="#d9843a" stroke-width="2.6" stroke-linecap="round" stroke-linejoin="round"/><ellipse cx="131" cy="131.8" rx="49.6" ry="36" fill="#8d5626" opacity="0.2"/><ellipse cx="81.4" cy="102.4" rx="24.8" ry="10.8" fill="#ffffff" opacity="0.1"/></g><g transform="translate(113.4 91.5) scale(0.94 0.70) rotate(-163.5)"><path d="M5.3,-2.9C6.6,-2.2 8.3,-2.3 8.2,-1.2C8.1,-0.1 6.0,2.6 4.7,3.8C3.4,5.0 2.1,5.9 0.3,5.8C-1.4,5.8 -4.9,4.7 -6.1,3.7C-7.3,2.7 -6.9,1.2 -6.8,-0.0C-6.7,-1.4 -6.6,-3.3 -5.4,-4.3C-4.2,-5.2 -1.3,-6.0 0.4,-5.8C2.2,-5.5 4.0,-3.7 5.3,-2.9Z" fill="#c6cfac" transform="translate(.5 1)"/><path d="M5.3,-2.9C6.6,-2.2 8.3,-2.3 8.2,-1.2C8.1,-0.1 6.0,2.6 4.7,3.8C3.4,5.0 2.1,5.9 0.3,5.8C-1.4,5.8 -4.9,4.7 -6.1,3.7C-7.3,2.7 -6.9,1.2 -6.8,-0.0C-6.7,-1.4 -6.6,-3.3 -5.4,-4.3C-4.2,-5.2 -1.3,-6.0 0.4,-5.8C2.2,-5.5 4.0,-3.7 5.3,-2.9Z" fill="#e6f1c8"/><path d="M-5,-0.7Q0,-0.4 5,0.4" fill="none" stroke="#ffffff" stroke-width="1.5" stroke-linecap="round" stroke-linejoin="round"/></g><g transform="translate(80.1 92.3) scale(0.94 0.75) rotate(151.0)"><path d="M-5,0L5,0" fill="none" stroke="#2f8a34" stroke-width="3.8" stroke-linecap="round" stroke-linejoin="round" transform="translate(0 .6)"/><path d="M-5,0L5,0" fill="none" stroke="#4f9f3c" stroke-width="3.2" stroke-linecap="round" stroke-linejoin="round"/><path d="M-3.5,-.5L3.5,-.5" fill="none" stroke="#9fd67a" stroke-width="1.5" stroke-linecap="round" stroke-linejoin="round"/></g><g transform="translate(104.7 89.1) scale(0.95 0.76) rotate(91.7)"><path d="M-6,0L6,0" fill="none" stroke="#c75e0a" stroke-width="3" stroke-linecap="round" stroke-linejoin="round" transform="translate(0 .6)"/><path d="M-6,0L6,0" fill="none" stroke="#f7891f" stroke-width="2.6" stroke-linecap="round" stroke-linejoin="round"/></g><g transform="translate(65.9 96.5) scale(0.95 0.76) rotate(-141.9)"><path d="M-6,0L6,0" fill="none" stroke="#c75e0a" stroke-width="3" stroke-linecap="round" stroke-linejoin="round" transform="translate(0 .6)"/><path d="M-6,0L6,0" fill="none" stroke="#f7891f" stroke-width="2.6" stroke-linecap="round" stroke-linejoin="round"/></g><g transform="translate(132.3 95.7) scale(0.95 0.71) rotate(-85.0)"><path d="M-0.3,5.0C-2.3,4.9 -6.9,4.3 -8.0,3.2C-9.1,2.2 -7.7,0.2 -7.1,-1.2C-6.6,-2.6 -5.9,-4.8 -4.6,-5.4C-3.4,-6.1 -1.3,-5.2 0.3,-4.9C2.0,-4.7 4.0,-4.8 5.6,-3.8C7.1,-2.8 9.8,-0.4 9.6,0.8C9.3,2.2 5.7,3.4 4.1,4.1C2.4,4.8 1.6,5.2 -0.3,5.0Z" fill="#c6cfac" transform="translate(.5 1)"/><path d="M-0.3,5.0C-2.3,4.9 -6.9,4.3 -8.0,3.2C-9.1,2.2 -7.7,0.2 -7.1,-1.2C-6.6,-2.6 -5.9,-4.8 -4.6,-5.4C-3.4,-6.1 -1.3,-5.2 0.3,-4.9C2.0,-4.7 4.0,-4.8 5.6,-3.8C7.1,-2.8 9.8,-0.4 9.6,0.8C9.3,2.2 5.7,3.4 4.1,4.1C2.4,4.8 1.6,5.2 -0.3,5.0Z" fill="#e6f1c8"/><path d="M-5,-0.3Q0,1.8 5,0.8" fill="none" stroke="#ffffff" stroke-width="1.5" stroke-linecap="round" stroke-linejoin="round"/></g><g transform="translate(88.7 90.4) scale(0.97 0.77) rotate(-3.0)"><path d="M2.6,-5.5C4.4,-5.4 5.1,-4.5 5.8,-3.1C6.5,-1.6 7.4,1.8 6.7,3.2C6.1,4.7 3.6,5.7 1.7,5.7C-0.2,5.8 -3.4,4.4 -4.9,3.5C-6.4,2.5 -7.1,1.2 -7.1,0.0C-7.1,-1.1 -6.5,-2.6 -4.9,-3.6C-3.3,-4.5 0.8,-5.6 2.6,-5.5Z" fill="#a38150" transform="translate(.5 1.5)"/><path d="M2.6,-5.5C4.4,-5.4 5.1,-4.5 5.8,-3.1C6.5,-1.6 7.4,1.8 6.7,3.2C6.1,4.7 3.6,5.7 1.7,5.7C-0.2,5.8 -3.4,4.4 -4.9,3.5C-6.4,2.5 -7.1,1.2 -7.1,0.0C-7.1,-1.1 -6.5,-2.6 -4.9,-3.6C-3.3,-4.5 0.8,-5.6 2.6,-5.5Z" fill="#e9b872"/><path d="M-4,-2Q-1.5,-3.6 1.5,-3" fill="none" stroke="#f4dcb9" stroke-width="1.5" stroke-linecap="round" stroke-linejoin="round"/></g><g transform="translate(103.4 89.8) scale(0.97 0.78) rotate(118.9)"><path d="M-6,0L6,0" fill="none" stroke="#c75e0a" stroke-width="3" stroke-linecap="round" stroke-linejoin="round" transform="translate(0 .6)"/><path d="M-6,0L6,0" fill="none" stroke="#f7891f" stroke-width="2.6" stroke-linecap="round" stroke-linejoin="round"/></g><g transform="translate(56.2 102.5) scale(0.97 0.78) rotate(118.9)"><path d="M-6,0L6,0" fill="none" stroke="#c75e0a" stroke-width="3" stroke-linecap="round" stroke-linejoin="round" transform="translate(0 .6)"/><path d="M-6,0L6,0" fill="none" stroke="#f7891f" stroke-width="2.6" stroke-linecap="round" stroke-linejoin="round"/></g><g transform="translate(144.0 102.8) scale(0.97 0.78) rotate(165.1)"><path d="M-5,0L5,0" fill="none" stroke="#2f8a34" stroke-width="3.8" stroke-linecap="round" stroke-linejoin="round" transform="translate(0 .6)"/><path d="M-5,0L5,0" fill="none" stroke="#4f9f3c" stroke-width="3.2" stroke-linecap="round" stroke-linejoin="round"/><path d="M-3.5,-.5L3.5,-.5" fill="none" stroke="#9fd67a" stroke-width="1.5" stroke-linecap="round" stroke-linejoin="round"/></g><g transform="translate(127.6 96.8) scale(0.98 0.79) rotate(-168.6)"><path d="M-5,0L5,0" fill="none" stroke="#2f8a34" stroke-width="3.8" stroke-linecap="round" stroke-linejoin="round" transform="translate(0 .6)"/><path d="M-5,0L5,0" fill="none" stroke="#4f9f3c" stroke-width="3.2" stroke-linecap="round" stroke-linejoin="round"/><path d="M-3.5,-.5L3.5,-.5" fill="none" stroke="#9fd67a" stroke-width="1.5" stroke-linecap="round" stroke-linejoin="round"/></g><g transform="translate(79.0 96.0) scale(0.99 0.74) rotate(-163.5)"><path d="M-5.2,-3.6C-3.7,-4.2 -0.8,-4.8 0.8,-4.6C2.4,-4.5 3.2,-3.3 4.7,-2.6C6.2,-1.8 9.9,-1.5 9.8,-0.2C9.8,1.0 6.1,4.2 4.3,5.0C2.5,5.7 0.4,4.6 -1.1,4.3C-2.8,4.0 -4.3,4.1 -5.5,3.2C-6.7,2.3 -8.4,0.3 -8.4,-0.8C-8.3,-1.9 -6.8,-2.9 -5.2,-3.6Z" fill="#c6cfac" transform="translate(.5 1)"/><path d="M-5.2,-3.6C-3.7,-4.2 -0.8,-4.8 0.8,-4.6C2.4,-4.5 3.2,-3.3 4.7,-2.6C6.2,-1.8 9.9,-1.5 9.8,-0.2C9.8,1.0 6.1,4.2 4.3,5.0C2.5,5.7 0.4,4.6 -1.1,4.3C-2.8,4.0 -4.3,4.1 -5.5,3.2C-6.7,2.3 -8.4,0.3 -8.4,-0.8C-8.3,-1.9 -6.8,-2.9 -5.2,-3.6Z" fill="#e6f1c8"/><path d="M-5,-0.2Q0,-1.3 5,0.6" fill="none" stroke="#ffffff" stroke-width="1.5" stroke-linecap="round" stroke-linejoin="round"/></g><g transform="translate(59.8 104.1) scale(0.99 0.79) rotate(58.4)"><path d="M-5,0L5,0" fill="none" stroke="#2f8a34" stroke-width="3.8" stroke-linecap="round" stroke-linejoin="round" transform="translate(0 .6)"/><path d="M-5,0L5,0" fill="none" stroke="#4f9f3c" stroke-width="3.2" stroke-linecap="round" stroke-linejoin="round"/><path d="M-3.5,-.5L3.5,-.5" fill="none" stroke="#9fd67a" stroke-width="1.5" stroke-linecap="round" stroke-linejoin="round"/></g><g transform="translate(139.5 106.0) scale(1.00 0.75) rotate(159.7)"><path d="M8.6,-2.7C9.5,-1.7 8.7,0.5 8.0,1.8C7.2,3.2 6.2,4.8 4.2,5.3C2.2,5.8 -2.2,4.9 -4.1,4.6C-6.0,4.2 -6.3,4.1 -7.0,3.1C-7.7,2.1 -9.0,-0.3 -8.3,-1.4C-7.7,-2.6 -5.0,-3.2 -3.1,-3.7C-1.2,-4.1 0.9,-4.4 2.8,-4.2C4.8,-4.1 7.8,-3.7 8.6,-2.7Z" fill="#c6cfac" transform="translate(.5 1)"/><path d="M8.6,-2.7C9.5,-1.7 8.7,0.5 8.0,1.8C7.2,3.2 6.2,4.8 4.2,5.3C2.2,5.8 -2.2,4.9 -4.1,4.6C-6.0,4.2 -6.3,4.1 -7.0,3.1C-7.7,2.1 -9.0,-0.3 -8.3,-1.4C-7.7,-2.6 -5.0,-3.2 -3.1,-3.7C-1.2,-4.1 0.9,-4.4 2.8,-4.2C4.8,-4.1 7.8,-3.7 8.6,-2.7Z" fill="#e6f1c8"/><path d="M-5,0.6Q0,1.8 5,-0.7" fill="none" stroke="#ffffff" stroke-width="1.5" stroke-linecap="round" stroke-linejoin="round"/></g><g transform="translate(91.3 98.4) scale(1.01 0.80) rotate(60.0)"><path d="M-1.5,-5.4C0.1,-6.0 1.4,-6.4 2.7,-5.4C4.1,-4.5 5.9,-1.5 6.4,0.0C6.9,1.6 7.0,2.9 5.6,4.0C4.1,5.1 -0.3,6.5 -2.1,6.5C-3.9,6.5 -4.3,5.3 -5.2,4.0C-6.0,2.6 -8.0,-0.1 -7.4,-1.7C-6.8,-3.3 -3.2,-4.7 -1.5,-5.4Z" fill="#a38150" transform="translate(.5 1.5)"/><path d="M-1.5,-5.4C0.1,-6.0 1.4,-6.4 2.7,-5.4C4.1,-4.5 5.9,-1.5 6.4,0.0C6.9,1.6 7.0,2.9 5.6,4.0C4.1,5.1 -0.3,6.5 -2.1,6.5C-3.9,6.5 -4.3,5.3 -5.2,4.0C-6.0,2.6 -8.0,-0.1 -7.4,-1.7C-6.8,-3.3 -3.2,-4.7 -1.5,-5.4Z" fill="#e9b872"/><path d="M-4,-2Q-1.5,-3.6 1.5,-3" fill="none" stroke="#f4dcb9" stroke-width="1.5" stroke-linecap="round" stroke-linejoin="round"/></g><g transform="translate(111.9 100.5) scale(1.01 0.81) rotate(124.3)"><path d="M-5.0,-5.5C-3.4,-6.2 0.8,-5.1 2.9,-4.4C5.0,-3.8 7.1,-2.9 7.5,-1.5C7.9,-0.2 6.8,2.4 5.3,3.7C3.8,5.0 0.5,6.4 -1.2,6.4C-3.0,6.3 -4.5,4.4 -5.3,3.3C-6.2,2.2 -6.4,1.2 -6.3,-0.2C-6.3,-1.6 -6.5,-4.7 -5.0,-5.5Z" fill="#a38150" transform="translate(.5 1.5)"/><path d="M-5.0,-5.5C-3.4,-6.2 0.8,-5.1 2.9,-4.4C5.0,-3.8 7.1,-2.9 7.5,-1.5C7.9,-0.2 6.8,2.4 5.3,3.7C3.8,5.0 0.5,6.4 -1.2,6.4C-3.0,6.3 -4.5,4.4 -5.3,3.3C-6.2,2.2 -6.4,1.2 -6.3,-0.2C-6.3,-1.6 -6.5,-4.7 -5.0,-5.5Z" fill="#e9b872"/><path d="M-4,-2Q-1.5,-3.6 1.5,-3" fill="none" stroke="#f4dcb9" stroke-width="1.5" stroke-linecap="round" stroke-linejoin="round"/></g><g transform="translate(123.9 105.0) scale(1.01 0.81) rotate(159.6)"><path d="M-5,0L5,0" fill="none" stroke="#2f8a34" stroke-width="3.8" stroke-linecap="round" stroke-linejoin="round" transform="translate(0 .6)"/><path d="M-5,0L5,0" fill="none" stroke="#4f9f3c" stroke-width="3.2" stroke-linecap="round" stroke-linejoin="round"/><path d="M-3.5,-.5L3.5,-.5" fill="none" stroke="#9fd67a" stroke-width="1.5" stroke-linecap="round" stroke-linejoin="round"/></g><g transform="translate(74.1 107.7) scale(1.02 0.81) rotate(-66.2)"><path d="M-4.9,5.5C-6.4,5.1 -6.7,3.8 -6.9,2.4C-7.1,1.0 -7.4,-1.3 -6.1,-2.7C-4.7,-4.0 -0.5,-5.6 1.4,-5.8C3.3,-6.0 4.6,-5.0 5.7,-3.7C6.7,-2.3 8.3,0.9 7.6,2.4C6.9,3.9 3.6,4.8 1.5,5.3C-0.5,5.8 -3.5,6.0 -4.9,5.5Z" fill="#a38150" transform="translate(.5 1.5)"/><path d="M-4.9,5.5C-6.4,5.1 -6.7,3.8 -6.9,2.4C-7.1,1.0 -7.4,-1.3 -6.1,-2.7C-4.7,-4.0 -0.5,-5.6 1.4,-5.8C3.3,-6.0 4.6,-5.0 5.7,-3.7C6.7,-2.3 8.3,0.9 7.6,2.4C6.9,3.9 3.6,4.8 1.5,5.3C-0.5,5.8 -3.5,6.0 -4.9,5.5Z" fill="#e9b872"/><path d="M-4,-2Q-1.5,-3.6 1.5,-3" fill="none" stroke="#f4dcb9" stroke-width="1.5" stroke-linecap="round" stroke-linejoin="round"/></g><g transform="translate(127.7 113.9) scale(1.03 0.82) rotate(-51.3)"><path d="M-1.7,5.9C-3.8,6.0 -6.2,4.8 -7.0,3.4C-7.8,2.0 -7.2,-0.9 -6.5,-2.4C-5.7,-3.8 -4.2,-4.8 -2.5,-5.2C-0.9,-5.7 1.7,-5.8 3.5,-5.3C5.2,-4.7 7.5,-3.3 7.8,-1.9C8.1,-0.5 6.8,1.5 5.2,2.9C3.6,4.2 0.2,5.8 -1.7,5.9Z" fill="#a38150" transform="translate(.5 1.5)"/><path d="M-1.7,5.9C-3.8,6.0 -6.2,4.8 -7.0,3.4C-7.8,2.0 -7.2,-0.9 -6.5,-2.4C-5.7,-3.8 -4.2,-4.8 -2.5,-5.2C-0.9,-5.7 1.7,-5.8 3.5,-5.3C5.2,-4.7 7.5,-3.3 7.8,-1.9C8.1,-0.5 6.8,1.5 5.2,2.9C3.6,4.2 0.2,5.8 -1.7,5.9Z" fill="#e9b872"/><path d="M-4,-2Q-1.5,-3.6 1.5,-3" fill="none" stroke="#f4dcb9" stroke-width="1.5" stroke-linecap="round" stroke-linejoin="round"/></g><g transform="translate(101.4 109.4) scale(1.03 0.82) rotate(-101.3)"><path d="M-6,0L6,0" fill="none" stroke="#c75e0a" stroke-width="3" stroke-linecap="round" stroke-linejoin="round" transform="translate(0 .6)"/><path d="M-6,0L6,0" fill="none" stroke="#f7891f" stroke-width="2.6" stroke-linecap="round" stroke-linejoin="round"/></g><g transform="translate(74.5 118.4) scale(1.04 0.83) rotate(-164.5)"><path d="M1.8,5.5C-0.1,6.2 -2.4,5.9 -3.8,5.3C-5.2,4.8 -6.4,3.6 -6.6,1.9C-6.8,0.3 -5.9,-3.2 -5.0,-4.5C-4.1,-5.8 -2.9,-5.9 -1.3,-5.8C0.3,-5.7 3.2,-5.0 4.8,-3.9C6.4,-2.8 8.6,-0.8 8.1,0.7C7.6,2.3 3.9,4.7 1.8,5.5Z" fill="#a38150" transform="translate(.5 1.5)"/><path d="M1.8,5.5C-0.1,6.2 -2.4,5.9 -3.8,5.3C-5.2,4.8 -6.4,3.6 -6.6,1.9C-6.8,0.3 -5.9,-3.2 -5.0,-4.5C-4.1,-5.8 -2.9,-5.9 -1.3,-5.8C0.3,-5.7 3.2,-5.0 4.8,-3.9C6.4,-2.8 8.6,-0.8 8.1,0.7C7.6,2.3 3.9,4.7 1.8,5.5Z" fill="#e9b872"/><path d="M-4,-2Q-1.5,-3.6 1.5,-3" fill="none" stroke="#f4dcb9" stroke-width="1.5" stroke-linecap="round" stroke-linejoin="round"/></g><g transform="translate(112.8 124.3) scale(1.05 0.84) rotate(-112.4)"><path d="M-7.0,-2.5C-6.4,-3.8 -4.0,-4.5 -2.1,-4.8C-0.2,-5.1 2.7,-4.8 4.3,-4.3C5.9,-3.7 7.3,-2.7 7.4,-1.4C7.5,-0.0 6.4,2.4 4.8,3.5C3.3,4.7 0.0,5.4 -1.6,5.4C-3.4,5.3 -4.7,4.6 -5.6,3.2C-6.5,1.9 -7.5,-1.1 -7.0,-2.5Z" fill="#a38150" transform="translate(.5 1.5)"/><path d="M-7.0,-2.5C-6.4,-3.8 -4.0,-4.5 -2.1,-4.8C-0.2,-5.1 2.7,-4.8 4.3,-4.3C5.9,-3.7 7.3,-2.7 7.4,-1.4C7.5,-0.0 6.4,2.4 4.8,3.5C3.3,4.7 0.0,5.4 -1.6,5.4C-3.4,5.3 -4.7,4.6 -5.6,3.2C-6.5,1.9 -7.5,-1.1 -7.0,-2.5Z" fill="#e9b872"/><path d="M-4,-2Q-1.5,-3.6 1.5,-3" fill="none" stroke="#f4dcb9" stroke-width="1.5" stroke-linecap="round" stroke-linejoin="round"/></g></g></svg>
