<svg xmlns="http://www.w3.org/2000/svg" viewBox="0 0 200 200"><title>Sajgonki 3 szt.</title><defs><clipPath id="k1"><path d="M-22,0C-22,9.3 -11.4,15 0,15C11.4,15 22,9.3 22,0Z"/></clipPath><clipPath id="k2"><path d="M-20.6,0.4A20.6,7.3 0 0,0 20.6,0.4V-120H-20.6Z"/></clipPath></defs><rect width="200" height="200" fill="#fbf3ea"/><circle cx="35.9" cy="53.9" r="21.2" fill="#f8e6be"/><circle cx="67.7" cy="43.3" r="29.6" fill="#f8e6be"/><circle cx="97.4" cy="58.2" r="19.0" fill="#f8e6be"/><rect x="14.7" y="56.0" width="101.7" height="21.2" rx="10.6" fill="#f8e6be"/><circle cx="125.6" cy="94.7" r="15.2" fill="#fbf0d8"/><circle cx="148.4" cy="87.1" r="21.2" fill="#fbf0d8"/><circle cx="169.7" cy="97.8" r="13.6" fill="#fbf0d8"/><rect x="110.4" y="96.2" width="72.9" height="15.2" rx="7.6" fill="#fbf0d8"/><g transform="translate(22.9 28.7) scale(0.98 0.98) rotate(4.6)"><path d="M-5,0Q0,-2.6 5,0Q0,2.6 -5,0Z" fill="#e8873a"/></g><g transform="translate(176.7 25.2) scale(1.10 1.10) rotate(49.4)"><path d="M-5,0Q0,-2.6 5,0Q0,2.6 -5,0Z" fill="#3f5563"/></g><g transform="translate(186.0 153.7) scale(1.23 1.23) rotate(118.2)"><path d="M-5,0Q0,-2.6 5,0Q0,2.6 -5,0Z" fill="#e8873a"/></g><g transform="translate(11.2 115.8) scale(0.96 0.96) rotate(34.3)"><path d="M-5,0Q0,-2.6 5,0Q0,2.6 -5,0Z" fill="#e8873a"/></g><g transform="translate(35.2 187.0) scale(0.91 0.91) rotate(89.2)"><path d="M-5,0Q0,-2.6 5,0Q0,2.6 -5,0Z" fill="#e8873a"/></g><g transform="translate(175.1 192.5) scale(1.16 1.16) rotate(85.0)"><path d="M-5,0Q0,-2.6 5,0Q0,2.6 -5,0Z" fill="#3f5563"/></g><g transform="translate(100 110) scale(1.06) translate(-100 -110)"><ellipse cx="110" cy="139" rx="73.6" ry="19.2" fill="#8f6aa0" opacity="0.2"/><ellipse cx="110" cy="134.5" rx="78.8" ry="29.7" fill="#d6d6d6"/><ellipse cx="110" cy="130" rx="80" ry="31" fill="#ffffff"/><ellipse cx="110" cy="132" rx="56" ry="20.4" fill="#f4f4f4"/><path d="M57.3,125.0A56,20.4 0 0,1 162.6,125.0" fill="none" stroke="#e6e6e6" stroke-width="1.5" stroke-linecap="round" stroke-linejoin="round"/><path d="M38.6,140.8A77,29 0 0,0 73.8,155.6" fill="none" stroke="#ffffff" stroke-width="1.5" stroke-linecap="round" stroke-linejoin="round"/><g transform="translate(44 94) scale(1.1)"><ellipse cx="0" cy="20" rx="18.0" ry="3.7" fill="#8f6aa0" opacity="0.2"/><path d="M-7.4,7L-6.6,18Q0,22 6.6,18L7.4,7Z" fill="#242427"/><path d="M-22,0C-22,9.3 -11.4,15 0,15C11.4,15 22,9.3 22,0Z" fill="#252528"/><g clip-path="url(#k1)"><ellipse cx="-3.5" cy="0.7" rx="21.1" ry="13.5" fill="#2c2c30"/><ellipse cx="20.2" cy="7.5" rx="7.6" ry="12" fill="#000000" opacity="0.0"/><path d="M-18.9,4.8Q-16.2,10.7 -8.8,13.5" fill="none" stroke="#ffffff" stroke-width="0.9" stroke-linecap="round" stroke-linejoin="round" opacity="0.3"/></g><ellipse cx="0" cy="0" rx="22" ry="8.5" fill="#454549"/><ellipse cx="0" cy="0.4" rx="20.6" ry="7.3" fill="#343437"/><ellipse cx="0" cy="0.9" rx="20.3" ry="6.5" fill="#39393c"/><g clip-path="url(#k2)"><ellipse cx="0" cy="1.2" rx="18.6" ry="5.7" fill="#8f3a1f"/><path d="M-10,-0.1Q-4,-1.7 2,-1.1" fill="none" stroke="#b17562" stroke-width="1.5" stroke-linecap="round" stroke-linejoin="round"/><circle cx="6.8" cy="1.1" r="0.6" fill="#f4d9a0"/><circle cx="5.9" cy="2.0" r="0.7" fill="#f4d9a0"/><circle cx="1.0" cy="1.8" r="0.7" fill="#f4d9a0"/><circle cx="-6.0" cy="1.2" r="0.6" fill="#f4d9a0"/><circle cx="-7.5" cy="-1.5" r="0.8" fill="#e53935"/><circle cx="-6.8" cy="-2.8" r="0.6" fill="#e53935"/><circle cx="-1.5" cy="-0.1" r="0.9" fill="#e53935"/><circle cx="6.6" cy="-2.8" r="0.7" fill="#e53935"/></g><path d="M-18.6,4.0A21.5,8.0 0 0,0 -8.0,7.4" fill="none" stroke="#ffffff" stroke-width="1.5" stroke-linecap="round" stroke-linejoin="round" opacity="0.8"/></g><g transform="translate(130 118) scale(1 1) rotate(-16)"><path d="M-28,-9H28A4.5,9 0 0,1 28,9H-28A4.5,9 0 0,1 -28,-9Z" fill="#976521" transform="translate(.5 2.2)"/><path d="M-28,-9H28A4.5,9 0 0,1 28,9H-28A4.5,9 0 0,1 -28,-9Z" fill="#d8902f"/><path d="M-28,-9H28A4.5,9 0 0,1 31.6,-2.6H-27.1Z" fill="#eeb65a"/><path d="M-22.3,-7.6q1.2,7.2 0,13.5" fill="none" stroke="#b56d1d" stroke-width="1.5" stroke-linecap="round" stroke-linejoin="round"/><path d="M-5.6,-7.6q1.2,7.2 0,13.5" fill="none" stroke="#b56d1d" stroke-width="1.5" stroke-linecap="round" stroke-linejoin="round"/><path d="M6.2,-7.6q1.2,7.2 0,13.5" fill="none" stroke="#b56d1d" stroke-width="1.5" stroke-linecap="round" stroke-linejoin="round"/><path d="M19.2,-7.6q1.2,7.2 0,13.5" fill="none" stroke="#b56d1d" stroke-width="1.5" stroke-linecap="round" stroke-linejoin="round"/><path d="M4.1,-6.3q1.2,-0.7 2.4,-1.2" fill="none" stroke="#f6d387" stroke-width="1.5" stroke-linecap="round" stroke-linejoin="round"/><path d="M-8.9,-1.9q1.2,0.5 2.4,0.5" fill="none" stroke="#f6d387" stroke-width="1.5" stroke-linecap="round" stroke-linejoin="round"/><path d="M-13.2,-2.1q1.2,0.7 2.4,0.5" fill="none" stroke="#f6d387" stroke-width="1.5" stroke-linecap="round" stroke-linejoin="round"/><path d="M-22.5,-3.0q1.2,-0.2 2.4,-0.9" fill="none" stroke="#f6d387" stroke-width="1.5" stroke-linecap="round" stroke-linejoin="round"/><path d="M18.9,-4.8q1.2,0.3 2.4,0.0" fill="none" stroke="#f6d387" stroke-width="1.5" stroke-linecap="round" stroke-linejoin="round"/><ellipse cx="28" cy="0" rx="4.5" ry="9" fill="#c47a22"/><ellipse cx="28" cy="0" rx="2.7" ry="5.5" fill="#e3a449"/><path d="M28,-2.6a1.3,2.6 0 1,1 -.1,0" fill="none" stroke="#b56d1d" stroke-width="1.5" stroke-linecap="round" stroke-linejoin="round"/></g><g transform="translate(98 134) scale(1 1) rotate(-16)"><path d="M-28,-9H28A4.5,9 0 0,1 28,9H-28A4.5,9 0 0,1 -28,-9Z" fill="#976521" transform="translate(.5 2.2)"/><path d="M-28,-9H28A4.5,9 0 0,1 28,9H-28A4.5,9 0 0,1 -28,-9Z" fill="#d8902f"/><path d="M-28,-9H28A4.5,9 0 0,1 31.6,-2.6H-27.1Z" fill="#eeb65a"/><path d="M-22.8,-7.6q1.2,7.2 0,13.5" fill="none" stroke="#b56d1d" stroke-width="1.5" stroke-linecap="round" stroke-linejoin="round"/><path d="M-8.7,-7.6q1.2,7.2 0,13.5" fill="none" stroke="#b56d1d" stroke-width="1.5" stroke-linecap="round" stroke-linejoin="round"/><path d="M5.8,-7.6q1.2,7.2 0,13.5" fill="none" stroke="#b56d1d" stroke-width="1.5" stroke-linecap="round" stroke-linejoin="round"/><path d="M19.3,-7.6q1.2,7.2 0,13.5" fill="none" stroke="#b56d1d" stroke-width="1.5" stroke-linecap="round" stroke-linejoin="round"/><path d="M-7.6,-0.6q1.2,-0.2 2.4,0.2" fill="none" stroke="#f6d387" stroke-width="1.5" stroke-linecap="round" stroke-linejoin="round"/><path d="M10.0,-6.9q1.2,0.4 2.4,-0.4" fill="none" stroke="#f6d387" stroke-width="1.5" stroke-linecap="round" stroke-linejoin="round"/><path d="M-8.0,-1.9q1.2,0.6 2.4,-1.2" fill="none" stroke="#f6d387" stroke-width="1.5" stroke-linecap="round" stroke-linejoin="round"/><path d="M7.2,-1.4q1.2,0.9 2.4,-0.7" fill="none" stroke="#f6d387" stroke-width="1.5" stroke-linecap="round" stroke-linejoin="round"/><path d="M13.2,-1.7q1.2,0.6 2.4,-1.3" fill="none" stroke="#f6d387" stroke-width="1.5" stroke-linecap="round" stroke-linejoin="round"/><ellipse cx="28" cy="0" rx="4.5" ry="9" fill="#c47a22"/><ellipse cx="28" cy="0" rx="2.7" ry="5.5" fill="#e3a449"/><path d="M28,-2.6a1.3,2.6 0 1,1 -.1,0" fill="none" stroke="#b56d1d" stroke-width="1.5" stroke-linecap="round" stroke-linejoin="round"/></g><g transform="translate(116 110) scale(1 1) rotate(-18)"><path d="M-28,-9H28A4.5,9 0 0,1 28,9H-28A4.5,9 0 0,1 -28,-9Z" fill="#976521" transform="translate(.5 2.2)"/><path d="M-28,-9H28A4.5,9 0 0,1 28,9H-28A4.5,9 0 0,1 -28,-9Z" fill="#d8902f"/><path d="M-28,-9H28A4.5,9 0 0,1 31.6,-2.6H-27.1Z" fill="#eeb65a"/><path d="M-20.0,-7.6q1.2,7.2 0,13.5" fill="none" stroke="#b56d1d" stroke-width="1.5" stroke-linecap="round" stroke-linejoin="round"/><path d="M-6.7,-7.6q1.2,7.2 0,13.5" fill="none" stroke="#b56d1d" stroke-width="1.5" stroke-linecap="round" stroke-linejoin="round"/><path d="M6.0,-7.6q1.2,7.2 0,13.5" fill="none" stroke="#b56d1d" stroke-width="1.5" stroke-linecap="round" stroke-linejoin="round"/><path d="M21.9,-7.6q1.2,7.2 0,13.5" fill="none" stroke="#b56d1d" stroke-width="1.5" stroke-linecap="round" stroke-linejoin="round"/><path d="M4.1,0.9q1.2,0.9 2.4,-0.6" fill="none" stroke="#f6d387" stroke-width="1.5" stroke-linecap="round" stroke-linejoin="round"/><path d="M-9.4,-4.1q1.2,-0.0 2.4,-1.2" fill="none" stroke="#f6d387" stroke-width="1.5" stroke-linecap="round" stroke-linejoin="round"/><path d="M-0.6,0.9q1.2,0.8 2.4,0.0" fill="none" stroke="#f6d387" stroke-width="1.5" stroke-linecap="round" stroke-linejoin="round"/><path d="M-2.5,-6.2q1.2,-0.7 2.4,0.0" fill="none" stroke="#f6d387" stroke-width="1.5" stroke-linecap="round" stroke-linejoin="round"/><path d="M-21.6,-3.0q1.2,0.9 2.4,0.0" fill="none" stroke="#f6d387" stroke-width="1.5" stroke-linecap="round" stroke-linejoin="round"/><ellipse cx="28" cy="0" rx="4.5" ry="9" fill="#c47a22"/><ellipse cx="28" cy="0" rx="2.7" ry="5.5" fill="#e3a449"/><path d="M28,-2.6a1.3,2.6 0 1,1 -.1,0" fill="none" stroke="#b56d1d" stroke-width="1.5" stroke-linecap="round" stroke-linejoin="round"/></g><g transform="translate(58 142) scale(1.35 1.35) rotate(-25)"><path d="M0,4Q-3.6,-3.9 -12.1,-7.9" fill="none" stroke="#5f9e45" stroke-width="1.5" stroke-linecap="round" stroke-linejoin="round"/><path d="M0,4Q-2.4,-6.1 -8.2,-12.3" fill="none" stroke="#5f9e45" stroke-width="1.5" stroke-linecap="round" stroke-linejoin="round"/><path d="M0,4Q0.0,-5.2 0.2,-10.5" fill="none" stroke="#5f9e45" stroke-width="1.5" stroke-linecap="round" stroke-linejoin="round"/><path d="M0,4Q2.1,-6.2 7.1,-12.5" fill="none" stroke="#5f9e45" stroke-width="1.5" stroke-linecap="round" stroke-linejoin="round"/><path d="M0,4Q2.2,-2.6 7.5,-5.3" fill="none" stroke="#5f9e45" stroke-width="1.5" stroke-linecap="round" stroke-linejoin="round"/><g transform="translate(-12.1 -7.9) rotate(14.2) scale(1.27)"><circle cx="-2.7" cy="-1.2" r="2.4" fill="#56a95b"/><circle cx="0" cy="-2.8" r="2.5" fill="#56a95b"/><circle cx="2.7" cy="-1.2" r="2.4" fill="#56a95b"/><circle cx="0" cy="0.2" r="2.4" fill="#56a95b"/><circle cx="-0.8" cy="-2.6" r="1" fill="#91c794"/></g><g transform="translate(-8.2 -12.3) rotate(-13.3) scale(1.34)"><circle cx="-2.7" cy="-1.2" r="2.4" fill="#378a3d"/><circle cx="0" cy="-2.8" r="2.5" fill="#378a3d"/><circle cx="2.7" cy="-1.2" r="2.4" fill="#378a3d"/><circle cx="0" cy="0.2" r="2.4" fill="#378a3d"/><circle cx="-0.8" cy="-2.6" r="1" fill="#7db381"/></g><g transform="translate(0.2 -10.5) rotate(-14.5) scale(1.27)"><circle cx="-2.7" cy="-1.2" r="2.4" fill="#3f9d45"/><circle cx="0" cy="-2.8" r="2.5" fill="#3f9d45"/><circle cx="2.7" cy="-1.2" r="2.4" fill="#3f9d45"/><circle cx="0" cy="0.2" r="2.4" fill="#3f9d45"/><circle cx="-0.8" cy="-2.6" r="1" fill="#82bf86"/></g><g transform="translate(7.1 -12.5) rotate(8.9) scale(1.25)"><circle cx="-2.7" cy="-1.2" r="2.4" fill="#3f9d45"/><circle cx="0" cy="-2.8" r="2.5" fill="#3f9d45"/><circle cx="2.7" cy="-1.2" r="2.4" fill="#3f9d45"/><circle cx="0" cy="0.2" r="2.4" fill="#3f9d45"/><circle cx="-0.8" cy="-2.6" r="1" fill="#82bf86"/></g><g transform="translate(7.5 -5.3) rotate(4.4) scale(1.22)"><circle cx="-2.7" cy="-1.2" r="2.4" fill="#378a3d"/><circle cx="0" cy="-2.8" r="2.5" fill="#378a3d"/><circle cx="2.7" cy="-1.2" r="2.4" fill="#378a3d"/><circle cx="0" cy="0.2" r="2.4" fill="#378a3d"/><circle cx="-0.8" cy="-2.6" r="1" fill="#7db381"/></g></g></g></svg>
