<svg xmlns="http://www.w3.org/2000/svg" viewBox="0 0 200 200"><title>Pad Thai z krewetkami</title><defs><clipPath id="k1"><path d="M16,126C66.4,87 142,89.8 184,116C142,152.8 66.4,150 16,126Z"/></clipPath><clipPath id="k2"><path d="M152.5,118C152.4,120.0 151.3,121.3 150.2,123.0C149.0,124.6 147.7,126.2 145.6,127.7C143.5,129.2 140.8,130.6 137.8,131.8C134.7,133.1 131.1,134.1 127.5,135.1C123.8,136.0 119.9,136.9 115.8,137.6C111.7,138.2 107.2,138.8 102.8,139.0C98.3,139.2 93.6,139.2 89.2,138.9C84.7,138.7 80.3,138.2 76.1,137.6C71.9,137.0 67.5,136.4 63.8,135.4C60.1,134.5 57.0,133.2 54.1,131.9C51.1,130.6 48.2,129.2 46.2,127.7C44.2,126.3 42.9,124.6 42.0,122.9C41.1,121.3 40.3,120.0 40.6,118.0C40.9,116.0 42.5,113.3 43.6,110.9C44.6,108.6 45.5,106.3 47.1,104.0C48.8,101.8 50.6,99.3 53.5,97.5C56.4,95.7 60.7,94.5 64.6,93.3C68.4,92.0 72.3,90.9 76.3,89.9C80.4,88.8 84.6,87.4 89.0,87.0C93.4,86.6 98.3,87.0 102.8,87.5C107.2,88.0 111.3,89.1 115.5,90.0C119.6,90.9 123.8,91.8 127.7,93.0C131.6,94.2 136.0,95.5 138.8,97.3C141.6,99.2 142.3,101.9 144.4,104.2C146.4,106.4 149.7,108.3 151.1,110.6C152.5,112.9 152.7,115.9 152.5,118Z"/></clipPath><clipPath id="k3"><path d="M152.5,118C152.4,120.0 151.3,121.3 150.2,123.0C149.0,124.6 147.7,126.2 145.6,127.7C143.5,129.2 140.8,130.6 137.8,131.8C134.7,133.1 131.1,134.1 127.5,135.1C123.8,136.0 119.9,136.9 115.8,137.6C111.7,138.2 107.2,138.8 102.8,139.0C98.3,139.2 93.6,139.2 89.2,138.9C84.7,138.7 80.3,138.2 76.1,137.6C71.9,137.0 67.5,136.4 63.8,135.4C60.1,134.5 57.0,133.2 54.1,131.9C51.1,130.6 48.2,129.2 46.2,127.7C44.2,126.3 42.9,124.6 42.0,122.9C41.1,121.3 40.3,120.0 40.6,118.0C40.9,116.0 42.5,113.3 43.6,110.9C44.6,108.6 45.5,106.3 47.1,104.0C48.8,101.8 50.6,99.3 53.5,97.5C56.4,95.7 60.7,94.5 64.6,93.3C68.4,92.0 72.3,90.9 76.3,89.9C80.4,88.8 84.6,87.4 89.0,87.0C93.4,86.6 98.3,87.0 102.8,87.5C107.2,88.0 111.3,89.1 115.5,90.0C119.6,90.9 123.8,91.8 127.7,93.0C131.6,94.2 136.0,95.5 138.8,97.3C141.6,99.2 142.3,101.9 144.4,104.2C146.4,106.4 149.7,108.3 151.1,110.6C152.5,112.9 152.7,115.9 152.5,118Z"/></clipPath></defs><rect width="200" height="200" fill="#fbf3ea"/><circle cx="35.2" cy="63.5" r="21.2" fill="#f8e0cd"/><circle cx="67.0" cy="52.9" r="29.6" fill="#f8e0cd"/><circle cx="96.7" cy="67.8" r="19.0" fill="#f8e0cd"/><rect x="14.0" y="65.6" width="101.7" height="21.2" rx="10.6" fill="#f8e0cd"/><circle cx="128.4" cy="94.2" r="15.2" fill="#fbece1"/><circle cx="151.2" cy="86.6" r="21.2" fill="#fbece1"/><circle cx="172.5" cy="97.2" r="13.6" fill="#fbece1"/><rect x="113.2" y="95.7" width="72.9" height="15.2" rx="7.6" fill="#fbece1"/><g transform="translate(23.4 35.4) scale(1.03 1.03) rotate(142.4)"><path d="M-5,0Q0,-2.6 5,0Q0,2.6 -5,0Z" fill="#f0b27a"/></g><g transform="translate(174.6 24.1) scale(1.17 1.17) rotate(63.4)"><path d="M-5,0Q0,-2.6 5,0Q0,2.6 -5,0Z" fill="#e8873a"/></g><g transform="translate(187.5 151.8) scale(0.98 0.98) rotate(110.9)"><path d="M-5,0Q0,-2.6 5,0Q0,2.6 -5,0Z" fill="#8fa9b8"/></g><g transform="translate(8.1 117.2) scale(0.94 0.94) rotate(0.3)"><path d="M-5,0Q0,-2.6 5,0Q0,2.6 -5,0Z" fill="#c9a9c9"/></g><g transform="translate(32.8 189.6) scale(1.09 1.09) rotate(142.6)"><path d="M-5,0Q0,-2.6 5,0Q0,2.6 -5,0Z" fill="#8fa9b8"/></g><g transform="translate(166.9 191.8) scale(1.08 1.08) rotate(135.2)"><path d="M-5,0Q0,-2.6 5,0Q0,2.6 -5,0Z" fill="#c9a9c9"/></g><g transform="translate(100 110) scale(1.06) translate(-100 -110)"><ellipse cx="100" cy="133" rx="80.9" ry="21.0" fill="#8f6aa0" opacity="0.2"/><ellipse cx="100" cy="128.5" rx="86.6" ry="32.6" fill="#d5d2cc"/><ellipse cx="100" cy="124" rx="88" ry="34" fill="#fdfaf3"/><ellipse cx="100" cy="126" rx="61.5" ry="22.4" fill="#f2efe8"/><path d="M42.1,118.3A61.5,22.4 0 0,1 157.8,118.3" fill="none" stroke="#e4e1db" stroke-width="1.5" stroke-linecap="round" stroke-linejoin="round"/><path d="M21.1,135.9A85,32 0 0,0 60.0,152.2" fill="none" stroke="#fefdfa" stroke-width="1.5" stroke-linecap="round" stroke-linejoin="round"/><path d="M16,126C66.4,87 142,89.8 184,116C142,152.8 66.4,150 16,126Z" fill="#2f7f36" transform="translate(0 2)"/><path d="M16,126C66.4,87 142,89.8 184,116C142,152.8 66.4,150 16,126Z" fill="#3f9446"/><g clip-path="url(#k1)"><path d="M16,126Q100,116.4 184,116V66H16Z" fill="#56ad57"/><path d="M30,118.6l-10,-33.6M30,118.6l-10,33.6" fill="none" stroke="#6fc36b" stroke-width="1.5" stroke-linecap="round" stroke-linejoin="round"/><path d="M44,117.9l-10,-33.6M44,117.9l-10,33.6" fill="none" stroke="#6fc36b" stroke-width="1.5" stroke-linecap="round" stroke-linejoin="round"/><path d="M58,117.3l-10,-33.6M58,117.3l-10,33.6" fill="none" stroke="#6fc36b" stroke-width="1.5" stroke-linecap="round" stroke-linejoin="round"/><path d="M72,116.6l-10,-33.6M72,116.6l-10,33.6" fill="none" stroke="#6fc36b" stroke-width="1.5" stroke-linecap="round" stroke-linejoin="round"/><path d="M86,115.9l-10,-33.6M86,115.9l-10,33.6" fill="none" stroke="#6fc36b" stroke-width="1.5" stroke-linecap="round" stroke-linejoin="round"/><path d="M100,115.3l-10,-33.6M100,115.3l-10,33.6" fill="none" stroke="#6fc36b" stroke-width="1.5" stroke-linecap="round" stroke-linejoin="round"/><path d="M114,114.6l-10,-33.6M114,114.6l-10,33.6" fill="none" stroke="#6fc36b" stroke-width="1.5" stroke-linecap="round" stroke-linejoin="round"/><path d="M128,113.9l-10,-33.6M128,113.9l-10,33.6" fill="none" stroke="#6fc36b" stroke-width="1.5" stroke-linecap="round" stroke-linejoin="round"/><path d="M142,113.3l-10,-33.6M142,113.3l-10,33.6" fill="none" stroke="#6fc36b" stroke-width="1.5" stroke-linecap="round" stroke-linejoin="round"/><path d="M156,112.6l-10,-33.6M156,112.6l-10,33.6" fill="none" stroke="#6fc36b" stroke-width="1.5" stroke-linecap="round" stroke-linejoin="round"/><path d="M170,111.9l-10,-33.6M170,111.9l-10,33.6" fill="none" stroke="#6fc36b" stroke-width="1.5" stroke-linecap="round" stroke-linejoin="round"/><path d="M184,111.3l-10,-33.6M184,111.3l-10,33.6" fill="none" stroke="#6fc36b" stroke-width="1.5" stroke-linecap="round" stroke-linejoin="round"/></g><path d="M16,126Q100,116.4 184,116" fill="none" stroke="#a6dd8f" stroke-width="1.5" stroke-linecap="round" stroke-linejoin="round"/><path d="M152.5,118C152.4,120.0 151.3,121.3 150.2,123.0C149.0,124.6 147.7,126.2 145.6,127.7C143.5,129.2 140.8,130.6 137.8,131.8C134.7,133.1 131.1,134.1 127.5,135.1C123.8,136.0 119.9,136.9 115.8,137.6C111.7,138.2 107.2,138.8 102.8,139.0C98.3,139.2 93.6,139.2 89.2,138.9C84.7,138.7 80.3,138.2 76.1,137.6C71.9,137.0 67.5,136.4 63.8,135.4C60.1,134.5 57.0,133.2 54.1,131.9C51.1,130.6 48.2,129.2 46.2,127.7C44.2,126.3 42.9,124.6 42.0,122.9C41.1,121.3 40.3,120.0 40.6,118.0C40.9,116.0 42.5,113.3 43.6,110.9C44.6,108.6 45.5,106.3 47.1,104.0C48.8,101.8 50.6,99.3 53.5,97.5C56.4,95.7 60.7,94.5 64.6,93.3C68.4,92.0 72.3,90.9 76.3,89.9C80.4,88.8 84.6,87.4 89.0,87.0C93.4,86.6 98.3,87.0 102.8,87.5C107.2,88.0 111.3,89.1 115.5,90.0C119.6,90.9 123.8,91.8 127.7,93.0C131.6,94.2 136.0,95.5 138.8,97.3C141.6,99.2 142.3,101.9 144.4,104.2C146.4,106.4 149.7,108.3 151.1,110.6C152.5,112.9 152.7,115.9 152.5,118Z" fill="#92622f" transform="translate(0 2.5)"/><path d="M152.5,118C152.4,120.0 151.3,121.3 150.2,123.0C149.0,124.6 147.7,126.2 145.6,127.7C143.5,129.2 140.8,130.6 137.8,131.8C134.7,133.1 131.1,134.1 127.5,135.1C123.8,136.0 119.9,136.9 115.8,137.6C111.7,138.2 107.2,138.8 102.8,139.0C98.3,139.2 93.6,139.2 89.2,138.9C84.7,138.7 80.3,138.2 76.1,137.6C71.9,137.0 67.5,136.4 63.8,135.4C60.1,134.5 57.0,133.2 54.1,131.9C51.1,130.6 48.2,129.2 46.2,127.7C44.2,126.3 42.9,124.6 42.0,122.9C41.1,121.3 40.3,120.0 40.6,118.0C40.9,116.0 42.5,113.3 43.6,110.9C44.6,108.6 45.5,106.3 47.1,104.0C48.8,101.8 50.6,99.3 53.5,97.5C56.4,95.7 60.7,94.5 64.6,93.3C68.4,92.0 72.3,90.9 76.3,89.9C80.4,88.8 84.6,87.4 89.0,87.0C93.4,86.6 98.3,87.0 102.8,87.5C107.2,88.0 111.3,89.1 115.5,90.0C119.6,90.9 123.8,91.8 127.7,93.0C131.6,94.2 136.0,95.5 138.8,97.3C141.6,99.2 142.3,101.9 144.4,104.2C146.4,106.4 149.7,108.3 151.1,110.6C152.5,112.9 152.7,115.9 152.5,118Z" fill="#cb8841"/><g clip-path="url(#k2)"><ellipse cx="135.2" cy="132.7" rx="34.7" ry="29.8" fill="#b37839"/><ellipse cx="76.9" cy="101.7" rx="20.1" ry="9.1" fill="#d39b5f"/></g><g clip-path="url(#k3)"><path d="M123.1,68.5C123.5,67.8 124.3,65.6 125.3,64.3C126.3,62.9 128.1,61.7 128.9,60.4C129.8,59.0 129.7,57.5 130.3,56.0C130.9,54.6 132.4,53.2 132.3,51.8C132.3,50.4 130.9,49.0 130.1,47.6C129.3,46.2 128.1,44.8 127.6,43.4C127.1,41.9 127.8,40.4 127.2,39.0C126.6,37.6 124.8,36.3 124.0,34.9C123.2,33.5 123.4,31.9 122.3,30.6C121.3,29.3 119.2,28.3 117.6,27.1C116.0,25.9 114.8,24.5 112.9,23.5C111.1,22.5 107.5,21.4 106.4,21.0" fill="none" stroke="#ac7337" stroke-width="4.9" stroke-linecap="round" stroke-linejoin="round" transform="translate(0 1)"/><path d="M123.1,68.5C123.5,67.8 124.3,65.6 125.3,64.3C126.3,62.9 128.1,61.7 128.9,60.4C129.8,59.0 129.7,57.5 130.3,56.0C130.9,54.6 132.4,53.2 132.3,51.8C132.3,50.4 130.9,49.0 130.1,47.6C129.3,46.2 128.1,44.8 127.6,43.4C127.1,41.9 127.8,40.4 127.2,39.0C126.6,37.6 124.8,36.3 124.0,34.9C123.2,33.5 123.4,31.9 122.3,30.6C121.3,29.3 119.2,28.3 117.6,27.1C116.0,25.9 114.8,24.5 112.9,23.5C111.1,22.5 107.5,21.4 106.4,21.0" fill="none" stroke="#e29748" stroke-width="3.6" stroke-linecap="round" stroke-linejoin="round"/><path d="M102.2,85.1C103.4,84.7 106.9,83.6 109.4,83.1C111.9,82.7 115.1,83.1 117.3,82.4C119.5,81.8 120.6,80.0 122.7,79.2C124.9,78.4 127.9,78.4 130.3,77.7C132.6,77.0 134.4,75.9 136.7,75.1C139.0,74.4 141.5,73.8 143.9,73.2C146.4,72.6 148.8,71.9 151.4,71.6C154.0,71.4 156.8,71.8 159.4,71.7C162.0,71.5 165.1,71.5 167.2,70.8C169.4,70.0 170.1,68.2 172.1,67.3C174.1,66.4 177.3,66.2 179.2,65.3C181.2,64.4 183.0,62.3 183.8,61.7" fill="none" stroke="#ac7337" stroke-width="4.9" stroke-linecap="round" stroke-linejoin="round" transform="translate(0 1)"/><path d="M102.2,85.1C103.4,84.7 106.9,83.6 109.4,83.1C111.9,82.7 115.1,83.1 117.3,82.4C119.5,81.8 120.6,80.0 122.7,79.2C124.9,78.4 127.9,78.4 130.3,77.7C132.6,77.0 134.4,75.9 136.7,75.1C139.0,74.4 141.5,73.8 143.9,73.2C146.4,72.6 148.8,71.9 151.4,71.6C154.0,71.4 156.8,71.8 159.4,71.7C162.0,71.5 165.1,71.5 167.2,70.8C169.4,70.0 170.1,68.2 172.1,67.3C174.1,66.4 177.3,66.2 179.2,65.3C181.2,64.4 183.0,62.3 183.8,61.7" fill="none" stroke="#e29748" stroke-width="3.6" stroke-linecap="round" stroke-linejoin="round"/><path d="M61.7,71.4C61.1,72.0 59.4,74.0 58.4,75.4C57.5,76.8 57.3,78.4 55.9,79.6C54.5,80.8 52.1,81.7 50.0,82.5C47.8,83.4 45.4,84.0 43.1,84.7C40.8,85.5 38.5,86.3 36.1,86.8C33.6,87.4 30.9,88.0 28.3,88.0C25.7,88.0 23.1,87.4 20.5,87.0C18.0,86.6 15.5,86.0 13.0,85.5C10.5,85.1 7.8,84.2 5.3,84.3C2.8,84.4 0.5,85.9 -2.0,86.0C-4.5,86.2 -7.2,85.1 -9.8,85.2C-12.4,85.3 -16.2,86.2 -17.5,86.4" fill="none" stroke="#ac7337" stroke-width="4.9" stroke-linecap="round" stroke-linejoin="round" transform="translate(0 1)"/><path d="M61.7,71.4C61.1,72.0 59.4,74.0 58.4,75.4C57.5,76.8 57.3,78.4 55.9,79.6C54.5,80.8 52.1,81.7 50.0,82.5C47.8,83.4 45.4,84.0 43.1,84.7C40.8,85.5 38.5,86.3 36.1,86.8C33.6,87.4 30.9,88.0 28.3,88.0C25.7,88.0 23.1,87.4 20.5,87.0C18.0,86.6 15.5,86.0 13.0,85.5C10.5,85.1 7.8,84.2 5.3,84.3C2.8,84.4 0.5,85.9 -2.0,86.0C-4.5,86.2 -7.2,85.1 -9.8,85.2C-12.4,85.3 -16.2,86.2 -17.5,86.4" fill="none" stroke="#e29748" stroke-width="3.6" stroke-linecap="round" stroke-linejoin="round"/><path d="M91.0,134.8C92.1,134.4 96.2,133.6 97.8,132.5C99.5,131.5 99.7,129.7 101.1,128.5C102.4,127.2 104.6,126.3 106.2,125.1C107.7,123.9 108.4,122.3 110.2,121.3C112.0,120.3 114.7,119.7 116.9,119.0C119.2,118.2 121.7,117.6 123.9,116.7C126.0,115.9 127.8,114.8 129.9,113.9C132.0,112.9 134.7,112.3 136.3,111.2C137.8,110.1 138.1,108.4 139.1,107.1C140.1,105.7 141.6,104.5 142.5,103.1C143.4,101.7 143.2,100.1 144.4,98.8C145.6,97.6 148.8,96.1 149.7,95.5" fill="none" stroke="#ac7337" stroke-width="4.9" stroke-linecap="round" stroke-linejoin="round" transform="translate(0 1)"/><path d="M91.0,134.8C92.1,134.4 96.2,133.6 97.8,132.5C99.5,131.5 99.7,129.7 101.1,128.5C102.4,127.2 104.6,126.3 106.2,125.1C107.7,123.9 108.4,122.3 110.2,121.3C112.0,120.3 114.7,119.7 116.9,119.0C119.2,118.2 121.7,117.6 123.9,116.7C126.0,115.9 127.8,114.8 129.9,113.9C132.0,112.9 134.7,112.3 136.3,111.2C137.8,110.1 138.1,108.4 139.1,107.1C140.1,105.7 141.6,104.5 142.5,103.1C143.4,101.7 143.2,100.1 144.4,98.8C145.6,97.6 148.8,96.1 149.7,95.5" fill="none" stroke="#e29748" stroke-width="3.6" stroke-linecap="round" stroke-linejoin="round"/><path d="M119.6,131.3C118.5,131.8 114.7,132.8 113.2,133.9C111.6,135.1 111.3,136.7 110.2,138.0C109.1,139.4 108.2,140.9 106.4,141.9C104.7,142.9 101.4,143.2 99.6,144.2C97.8,145.2 96.8,146.7 95.6,148.0C94.5,149.3 94.2,151.0 92.6,152.1C91.0,153.2 88.4,153.9 86.2,154.7C84.0,155.6 82.0,156.8 79.5,157.1C77.1,157.5 74.2,157.1 71.5,156.9C68.9,156.8 66.2,156.5 63.7,156.1C61.1,155.8 58.0,155.6 56.1,154.7C54.1,153.9 52.8,151.6 52.1,150.9" fill="none" stroke="#ac7337" stroke-width="4.9" stroke-linecap="round" stroke-linejoin="round" transform="translate(0 1)"/><path d="M119.6,131.3C118.5,131.8 114.7,132.8 113.2,133.9C111.6,135.1 111.3,136.7 110.2,138.0C109.1,139.4 108.2,140.9 106.4,141.9C104.7,142.9 101.4,143.2 99.6,144.2C97.8,145.2 96.8,146.7 95.6,148.0C94.5,149.3 94.2,151.0 92.6,152.1C91.0,153.2 88.4,153.9 86.2,154.7C84.0,155.6 82.0,156.8 79.5,157.1C77.1,157.5 74.2,157.1 71.5,156.9C68.9,156.8 66.2,156.5 63.7,156.1C61.1,155.8 58.0,155.6 56.1,154.7C54.1,153.9 52.8,151.6 52.1,150.9" fill="none" stroke="#e29748" stroke-width="3.6" stroke-linecap="round" stroke-linejoin="round"/><path d="M50.9,141.7C51.2,141.0 51.6,138.8 52.5,137.4C53.5,136.1 56.0,135.0 56.5,133.6C56.9,132.2 54.7,130.6 55.2,129.2C55.6,127.9 57.6,126.6 59.3,125.5C61.0,124.4 64.0,123.8 65.3,122.6C66.6,121.4 65.6,119.5 66.8,118.3C68.0,117.0 70.7,116.3 72.6,115.2C74.5,114.2 76.7,113.3 78.2,112.1C79.7,110.9 81.3,109.5 81.7,108.1C82.2,106.7 80.5,105.1 81.1,103.7C81.8,102.4 85.1,101.5 85.8,100.2C86.5,98.8 85.5,96.5 85.4,95.8" fill="none" stroke="#ac7337" stroke-width="4.9" stroke-linecap="round" stroke-linejoin="round" transform="translate(0 1)"/><path d="M50.9,141.7C51.2,141.0 51.6,138.8 52.5,137.4C53.5,136.1 56.0,135.0 56.5,133.6C56.9,132.2 54.7,130.6 55.2,129.2C55.6,127.9 57.6,126.6 59.3,125.5C61.0,124.4 64.0,123.8 65.3,122.6C66.6,121.4 65.6,119.5 66.8,118.3C68.0,117.0 70.7,116.3 72.6,115.2C74.5,114.2 76.7,113.3 78.2,112.1C79.7,110.9 81.3,109.5 81.7,108.1C82.2,106.7 80.5,105.1 81.1,103.7C81.8,102.4 85.1,101.5 85.8,100.2C86.5,98.8 85.5,96.5 85.4,95.8" fill="none" stroke="#e29748" stroke-width="3.6" stroke-linecap="round" stroke-linejoin="round"/><path d="M40.7,120.3C40.2,121.0 39.0,123.1 37.9,124.4C36.7,125.7 34.9,126.9 33.9,128.2C32.9,129.6 32.0,131.0 31.8,132.5C31.6,133.9 32.1,135.4 32.7,136.9C33.2,138.3 33.9,139.8 35.3,141.0C36.6,142.3 38.4,143.6 40.6,144.3C42.8,145.0 45.9,145.1 48.5,145.0C51.1,144.8 54.0,144.2 55.9,143.3C57.9,142.5 59.6,141.0 60.4,139.7C61.1,138.3 60.7,136.7 60.5,135.3C60.3,133.8 59.5,132.4 59.1,130.9C58.8,129.5 58.7,127.3 58.6,126.6" fill="none" stroke="#ac7337" stroke-width="4.9" stroke-linecap="round" stroke-linejoin="round" transform="translate(0 1)"/><path d="M40.7,120.3C40.2,121.0 39.0,123.1 37.9,124.4C36.7,125.7 34.9,126.9 33.9,128.2C32.9,129.6 32.0,131.0 31.8,132.5C31.6,133.9 32.1,135.4 32.7,136.9C33.2,138.3 33.9,139.8 35.3,141.0C36.6,142.3 38.4,143.6 40.6,144.3C42.8,145.0 45.9,145.1 48.5,145.0C51.1,144.8 54.0,144.2 55.9,143.3C57.9,142.5 59.6,141.0 60.4,139.7C61.1,138.3 60.7,136.7 60.5,135.3C60.3,133.8 59.5,132.4 59.1,130.9C58.8,129.5 58.7,127.3 58.6,126.6" fill="none" stroke="#e29748" stroke-width="3.6" stroke-linecap="round" stroke-linejoin="round"/><path d="M121.7,67.0C120.4,66.9 116.4,67.0 113.8,66.8C111.1,66.6 108.6,65.9 106.0,65.7C103.4,65.5 100.4,65.0 98.0,65.4C95.6,65.8 94.0,67.4 91.6,68.0C89.2,68.6 86.1,68.3 83.7,68.9C81.4,69.5 79.2,70.5 77.5,71.6C75.7,72.7 74.1,74.0 73.2,75.3C72.2,76.6 72.1,78.2 71.8,79.6C71.4,81.1 71.6,82.6 71.0,84.0C70.5,85.4 69.9,87.0 68.5,88.2C67.0,89.4 64.6,90.4 62.3,91.0C59.9,91.6 55.7,91.6 54.4,91.7" fill="none" stroke="#ac7337" stroke-width="4.9" stroke-linecap="round" stroke-linejoin="round" transform="translate(0 1)"/><path d="M121.7,67.0C120.4,66.9 116.4,67.0 113.8,66.8C111.1,66.6 108.6,65.9 106.0,65.7C103.4,65.5 100.4,65.0 98.0,65.4C95.6,65.8 94.0,67.4 91.6,68.0C89.2,68.6 86.1,68.3 83.7,68.9C81.4,69.5 79.2,70.5 77.5,71.6C75.7,72.7 74.1,74.0 73.2,75.3C72.2,76.6 72.1,78.2 71.8,79.6C71.4,81.1 71.6,82.6 71.0,84.0C70.5,85.4 69.9,87.0 68.5,88.2C67.0,89.4 64.6,90.4 62.3,91.0C59.9,91.6 55.7,91.6 54.4,91.7" fill="none" stroke="#e29748" stroke-width="3.6" stroke-linecap="round" stroke-linejoin="round"/><path d="M119.3,80.7C119.4,81.4 120.4,83.6 120.3,85.0C120.1,86.5 119.1,87.9 118.4,89.3C117.7,90.7 116.1,92.1 116.0,93.5C116.0,94.9 118.0,96.4 118.1,97.8C118.1,99.2 117.0,100.7 116.4,102.1C115.8,103.5 114.7,104.9 114.7,106.4C114.6,107.8 115.3,109.4 116.3,110.7C117.3,112.0 120.0,113.0 120.7,114.4C121.3,115.7 120.4,117.3 120.2,118.8C120.1,120.2 119.0,121.9 119.7,123.2C120.5,124.5 122.7,125.7 124.7,126.6C126.8,127.5 130.7,128.2 131.9,128.5" fill="none" stroke="#ac7337" stroke-width="4.9" stroke-linecap="round" stroke-linejoin="round" transform="translate(0 1)"/><path d="M119.3,80.7C119.4,81.4 120.4,83.6 120.3,85.0C120.1,86.5 119.1,87.9 118.4,89.3C117.7,90.7 116.1,92.1 116.0,93.5C116.0,94.9 118.0,96.4 118.1,97.8C118.1,99.2 117.0,100.7 116.4,102.1C115.8,103.5 114.7,104.9 114.7,106.4C114.6,107.8 115.3,109.4 116.3,110.7C117.3,112.0 120.0,113.0 120.7,114.4C121.3,115.7 120.4,117.3 120.2,118.8C120.1,120.2 119.0,121.9 119.7,123.2C120.5,124.5 122.7,125.7 124.7,126.6C126.8,127.5 130.7,128.2 131.9,128.5" fill="none" stroke="#e29748" stroke-width="3.6" stroke-linecap="round" stroke-linejoin="round"/><path d="M80.3,87.3C79.3,87.7 75.7,89.0 74.2,90.1C72.6,91.3 71.8,92.8 71.0,94.1C70.1,95.5 69.9,97.0 69.0,98.4C68.2,99.8 67.5,101.4 65.8,102.4C64.2,103.5 61.5,104.5 59.1,104.8C56.6,105.1 53.5,104.8 51.1,104.3C48.7,103.8 46.2,102.8 44.6,101.7C43.0,100.6 42.9,98.9 41.5,97.7C40.0,96.5 37.8,95.5 36.0,94.5C34.1,93.5 31.8,92.6 30.2,91.4C28.6,90.3 27.7,88.8 26.4,87.6C25.1,86.3 23.0,84.4 22.3,83.8" fill="none" stroke="#ac7337" stroke-width="4.9" stroke-linecap="round" stroke-linejoin="round" transform="translate(0 1)"/><path d="M80.3,87.3C79.3,87.7 75.7,89.0 74.2,90.1C72.6,91.3 71.8,92.8 71.0,94.1C70.1,95.5 69.9,97.0 69.0,98.4C68.2,99.8 67.5,101.4 65.8,102.4C64.2,103.5 61.5,104.5 59.1,104.8C56.6,105.1 53.5,104.8 51.1,104.3C48.7,103.8 46.2,102.8 44.6,101.7C43.0,100.6 42.9,98.9 41.5,97.7C40.0,96.5 37.8,95.5 36.0,94.5C34.1,93.5 31.8,92.6 30.2,91.4C28.6,90.3 27.7,88.8 26.4,87.6C25.1,86.3 23.0,84.4 22.3,83.8" fill="none" stroke="#e29748" stroke-width="3.6" stroke-linecap="round" stroke-linejoin="round"/><path d="M160.4,78.2C160.6,77.4 162.2,75.2 161.7,73.8C161.2,72.5 158.8,71.4 157.5,70.1C156.3,68.8 155.3,67.4 154.3,66.0C153.3,64.7 153.2,63.0 151.7,61.9C150.2,60.7 146.7,60.4 145.4,59.2C144.1,58.0 144.1,56.3 144.1,54.8C144.0,53.4 145.2,51.9 145.0,50.5C144.8,49.0 144.3,47.4 142.9,46.2C141.4,45.1 138.4,44.6 136.6,43.5C134.8,42.5 133.9,40.9 132.0,39.9C130.1,38.9 127.0,38.7 125.0,37.7C123.1,36.8 121.0,34.8 120.2,34.2" fill="none" stroke="#ac7337" stroke-width="4.9" stroke-linecap="round" stroke-linejoin="round" transform="translate(0 1)"/><path d="M160.4,78.2C160.6,77.4 162.2,75.2 161.7,73.8C161.2,72.5 158.8,71.4 157.5,70.1C156.3,68.8 155.3,67.4 154.3,66.0C153.3,64.7 153.2,63.0 151.7,61.9C150.2,60.7 146.7,60.4 145.4,59.2C144.1,58.0 144.1,56.3 144.1,54.8C144.0,53.4 145.2,51.9 145.0,50.5C144.8,49.0 144.3,47.4 142.9,46.2C141.4,45.1 138.4,44.6 136.6,43.5C134.8,42.5 133.9,40.9 132.0,39.9C130.1,38.9 127.0,38.7 125.0,37.7C123.1,36.8 121.0,34.8 120.2,34.2" fill="none" stroke="#e29748" stroke-width="3.6" stroke-linecap="round" stroke-linejoin="round"/><path d="M140.1,99.8C141.3,99.6 145.1,98.7 147.7,98.4C150.3,98.2 153.2,97.7 155.7,98.1C158.1,98.4 159.9,99.9 162.2,100.6C164.5,101.3 167.6,101.4 169.6,102.2C171.7,103.1 172.4,104.8 174.3,105.8C176.2,106.8 178.7,107.5 180.9,108.3C183.0,109.2 185.0,110.2 187.3,111.0C189.5,111.7 192.3,112.1 194.4,112.9C196.6,113.8 198.5,114.9 200.1,116.0C201.7,117.2 202.4,118.8 204.1,119.8C205.9,120.9 208.2,121.7 210.5,122.5C212.8,123.2 216.6,124.0 217.8,124.3" fill="none" stroke="#ac7337" stroke-width="4.9" stroke-linecap="round" stroke-linejoin="round" transform="translate(0 1)"/><path d="M140.1,99.8C141.3,99.6 145.1,98.7 147.7,98.4C150.3,98.2 153.2,97.7 155.7,98.1C158.1,98.4 159.9,99.9 162.2,100.6C164.5,101.3 167.6,101.4 169.6,102.2C171.7,103.1 172.4,104.8 174.3,105.8C176.2,106.8 178.7,107.5 180.9,108.3C183.0,109.2 185.0,110.2 187.3,111.0C189.5,111.7 192.3,112.1 194.4,112.9C196.6,113.8 198.5,114.9 200.1,116.0C201.7,117.2 202.4,118.8 204.1,119.8C205.9,120.9 208.2,121.7 210.5,122.5C212.8,123.2 216.6,124.0 217.8,124.3" fill="none" stroke="#e29748" stroke-width="3.6" stroke-linecap="round" stroke-linejoin="round"/><path d="M58.5,128.0C58.2,128.7 57.2,130.8 56.5,132.2C55.9,133.7 55.5,135.2 54.6,136.5C53.6,137.9 51.2,139.0 50.7,140.4C50.2,141.7 50.4,143.5 51.5,144.7C52.6,146.0 55.1,147.0 57.2,147.8C59.4,148.7 61.9,149.3 64.4,149.7C67.0,150.1 69.8,149.9 72.4,150.3C74.9,150.6 77.2,151.9 79.7,152.0C82.2,152.1 84.8,151.2 87.4,150.9C90.0,150.6 92.7,150.2 95.3,150.2C98.0,150.1 100.6,150.7 103.3,150.7C105.9,150.7 109.9,150.1 111.2,150.0" fill="none" stroke="#ac7337" stroke-width="4.9" stroke-linecap="round" stroke-linejoin="round" transform="translate(0 1)"/><path d="M58.5,128.0C58.2,128.7 57.2,130.8 56.5,132.2C55.9,133.7 55.5,135.2 54.6,136.5C53.6,137.9 51.2,139.0 50.7,140.4C50.2,141.7 50.4,143.5 51.5,144.7C52.6,146.0 55.1,147.0 57.2,147.8C59.4,148.7 61.9,149.3 64.4,149.7C67.0,150.1 69.8,149.9 72.4,150.3C74.9,150.6 77.2,151.9 79.7,152.0C82.2,152.1 84.8,151.2 87.4,150.9C90.0,150.6 92.7,150.2 95.3,150.2C98.0,150.1 100.6,150.7 103.3,150.7C105.9,150.7 109.9,150.1 111.2,150.0" fill="none" stroke="#e29748" stroke-width="3.6" stroke-linecap="round" stroke-linejoin="round"/><path d="M117.0,120.8C117.5,121.4 118.7,123.6 120.2,124.8C121.6,126.0 124.3,126.7 125.8,127.9C127.4,129.1 128.1,130.6 129.6,131.8C131.1,133.0 133.3,133.9 134.7,135.2C136.2,136.4 136.9,137.9 138.4,139.1C140.0,140.2 142.8,141.0 144.0,142.2C145.1,143.5 145.6,145.2 145.3,146.6C145.0,148.0 142.7,149.2 142.3,150.6C141.8,152.0 142.8,153.6 142.8,155.0C142.9,156.5 142.9,158.0 142.7,159.4C142.6,160.9 142.9,162.5 141.9,163.8C140.9,165.1 137.6,166.6 136.7,167.2" fill="none" stroke="#ac7337" stroke-width="4.9" stroke-linecap="round" stroke-linejoin="round" transform="translate(0 1)"/><path d="M117.0,120.8C117.5,121.4 118.7,123.6 120.2,124.8C121.6,126.0 124.3,126.7 125.8,127.9C127.4,129.1 128.1,130.6 129.6,131.8C131.1,133.0 133.3,133.9 134.7,135.2C136.2,136.4 136.9,137.9 138.4,139.1C140.0,140.2 142.8,141.0 144.0,142.2C145.1,143.5 145.6,145.2 145.3,146.6C145.0,148.0 142.7,149.2 142.3,150.6C141.8,152.0 142.8,153.6 142.8,155.0C142.9,156.5 142.9,158.0 142.7,159.4C142.6,160.9 142.9,162.5 141.9,163.8C140.9,165.1 137.6,166.6 136.7,167.2" fill="none" stroke="#e29748" stroke-width="3.6" stroke-linecap="round" stroke-linejoin="round"/><path d="M102.9,75.4C103.8,76.0 106.0,78.1 108.2,78.7C110.4,79.4 113.5,79.5 116.1,79.4C118.7,79.3 121.3,78.6 123.7,78.0C126.0,77.3 128.9,76.6 130.3,75.5C131.7,74.4 132.3,72.6 132.2,71.2C132.2,69.8 130.0,68.4 130.1,67.0C130.1,65.6 131.1,64.0 132.6,62.8C134.1,61.7 137.3,61.3 139.0,60.2C140.6,59.1 142.3,57.6 142.5,56.2C142.8,54.9 141.3,53.4 140.6,52.0C139.9,50.5 139.4,49.1 138.5,47.7C137.6,46.3 135.9,44.3 135.3,43.7" fill="none" stroke="#ac7337" stroke-width="4.9" stroke-linecap="round" stroke-linejoin="round" transform="translate(0 1)"/><path d="M102.9,75.4C103.8,76.0 106.0,78.1 108.2,78.7C110.4,79.4 113.5,79.5 116.1,79.4C118.7,79.3 121.3,78.6 123.7,78.0C126.0,77.3 128.9,76.6 130.3,75.5C131.7,74.4 132.3,72.6 132.2,71.2C132.2,69.8 130.0,68.4 130.1,67.0C130.1,65.6 131.1,64.0 132.6,62.8C134.1,61.7 137.3,61.3 139.0,60.2C140.6,59.1 142.3,57.6 142.5,56.2C142.8,54.9 141.3,53.4 140.6,52.0C139.9,50.5 139.4,49.1 138.5,47.7C137.6,46.3 135.9,44.3 135.3,43.7" fill="none" stroke="#e29748" stroke-width="3.6" stroke-linecap="round" stroke-linejoin="round"/><path d="M83.7,132.2C85.0,132.1 88.9,131.4 91.6,131.5C94.2,131.5 96.9,131.9 99.3,132.5C101.8,133.1 103.6,134.3 106.1,134.8C108.5,135.4 111.3,135.5 114.0,135.5C116.6,135.6 119.5,134.9 122.0,135.2C124.4,135.6 126.6,136.7 128.7,137.6C130.8,138.5 132.7,139.6 134.5,140.7C136.2,141.8 138.2,142.9 139.2,144.2C140.2,145.5 140.1,147.1 140.6,148.6C141.2,150.0 141.0,151.7 142.4,152.8C143.8,154.0 146.6,154.7 148.8,155.5C151.1,156.2 154.7,157.2 155.9,157.5" fill="none" stroke="#ac7337" stroke-width="4.9" stroke-linecap="round" stroke-linejoin="round" transform="translate(0 1)"/><path d="M83.7,132.2C85.0,132.1 88.9,131.4 91.6,131.5C94.2,131.5 96.9,131.9 99.3,132.5C101.8,133.1 103.6,134.3 106.1,134.8C108.5,135.4 111.3,135.5 114.0,135.5C116.6,135.6 119.5,134.9 122.0,135.2C124.4,135.6 126.6,136.7 128.7,137.6C130.8,138.5 132.7,139.6 134.5,140.7C136.2,141.8 138.2,142.9 139.2,144.2C140.2,145.5 140.1,147.1 140.6,148.6C141.2,150.0 141.0,151.7 142.4,152.8C143.8,154.0 146.6,154.7 148.8,155.5C151.1,156.2 154.7,157.2 155.9,157.5" fill="none" stroke="#e29748" stroke-width="3.6" stroke-linecap="round" stroke-linejoin="round"/><path d="M103.5,137.6C103.8,138.3 103.8,140.7 105.1,141.9C106.4,143.0 109.1,143.9 111.4,144.5C113.8,145.2 116.6,145.9 119.1,145.7C121.6,145.6 124.0,144.5 126.4,143.9C128.8,143.2 131.0,142.4 133.4,141.8C135.8,141.1 138.8,140.9 140.7,140.0C142.7,139.1 143.1,137.3 145.0,136.3C146.9,135.3 149.9,135.0 152.0,134.1C154.1,133.3 156.5,132.3 157.6,131.0C158.6,129.8 157.4,128.0 158.3,126.6C159.1,125.3 161.0,124.1 162.5,122.9C164.1,121.7 166.8,120.1 167.6,119.5" fill="none" stroke="#ac7337" stroke-width="4.9" stroke-linecap="round" stroke-linejoin="round" transform="translate(0 1)"/><path d="M103.5,137.6C103.8,138.3 103.8,140.7 105.1,141.9C106.4,143.0 109.1,143.9 111.4,144.5C113.8,145.2 116.6,145.9 119.1,145.7C121.6,145.6 124.0,144.5 126.4,143.9C128.8,143.2 131.0,142.4 133.4,141.8C135.8,141.1 138.8,140.9 140.7,140.0C142.7,139.1 143.1,137.3 145.0,136.3C146.9,135.3 149.9,135.0 152.0,134.1C154.1,133.3 156.5,132.3 157.6,131.0C158.6,129.8 157.4,128.0 158.3,126.6C159.1,125.3 161.0,124.1 162.5,122.9C164.1,121.7 166.8,120.1 167.6,119.5" fill="none" stroke="#e29748" stroke-width="3.6" stroke-linecap="round" stroke-linejoin="round"/><path d="M88.8,110.2C89.3,110.9 90.2,113.2 91.8,114.2C93.5,115.3 96.4,116.0 98.9,116.3C101.4,116.7 104.4,116.6 106.9,116.2C109.4,115.8 111.4,114.6 113.9,114.1C116.4,113.6 119.2,113.3 121.8,113.4C124.4,113.5 126.9,114.4 129.5,114.6C132.1,114.8 134.9,114.3 137.5,114.5C140.1,114.7 142.6,115.7 145.2,115.8C147.7,115.8 150.3,115.0 152.9,114.7C155.5,114.4 158.3,113.7 160.8,113.9C163.3,114.1 165.7,115.1 167.8,116.0C169.9,116.9 172.6,118.5 173.6,119.0" fill="none" stroke="#ac7337" stroke-width="4.9" stroke-linecap="round" stroke-linejoin="round" transform="translate(0 1)"/><path d="M88.8,110.2C89.3,110.9 90.2,113.2 91.8,114.2C93.5,115.3 96.4,116.0 98.9,116.3C101.4,116.7 104.4,116.6 106.9,116.2C109.4,115.8 111.4,114.6 113.9,114.1C116.4,113.6 119.2,113.3 121.8,113.4C124.4,113.5 126.9,114.4 129.5,114.6C132.1,114.8 134.9,114.3 137.5,114.5C140.1,114.7 142.6,115.7 145.2,115.8C147.7,115.8 150.3,115.0 152.9,114.7C155.5,114.4 158.3,113.7 160.8,113.9C163.3,114.1 165.7,115.1 167.8,116.0C169.9,116.9 172.6,118.5 173.6,119.0" fill="none" stroke="#e29748" stroke-width="3.6" stroke-linecap="round" stroke-linejoin="round"/><path d="M33.3,68.7C32.0,68.5 28.0,67.5 25.5,67.7C23.0,67.8 20.6,68.9 18.2,69.5C15.8,70.1 13.2,70.6 11.0,71.4C8.7,72.2 7.1,73.5 4.8,74.2C2.5,74.8 -0.2,75.0 -2.8,75.4C-5.3,75.8 -8.2,76.0 -10.4,76.8C-12.6,77.5 -14.2,78.8 -16.1,79.9C-17.9,80.9 -19.4,82.2 -21.5,83.1C-23.6,84.0 -26.8,84.1 -28.6,85.1C-30.5,86.1 -31.6,87.6 -32.4,89.0C-33.2,90.3 -33.5,91.9 -33.3,93.3C-33.1,94.8 -31.4,96.9 -31.1,97.6" fill="none" stroke="#ac7337" stroke-width="4.9" stroke-linecap="round" stroke-linejoin="round" transform="translate(0 1)"/><path d="M33.3,68.7C32.0,68.5 28.0,67.5 25.5,67.7C23.0,67.8 20.6,68.9 18.2,69.5C15.8,70.1 13.2,70.6 11.0,71.4C8.7,72.2 7.1,73.5 4.8,74.2C2.5,74.8 -0.2,75.0 -2.8,75.4C-5.3,75.8 -8.2,76.0 -10.4,76.8C-12.6,77.5 -14.2,78.8 -16.1,79.9C-17.9,80.9 -19.4,82.2 -21.5,83.1C-23.6,84.0 -26.8,84.1 -28.6,85.1C-30.5,86.1 -31.6,87.6 -32.4,89.0C-33.2,90.3 -33.5,91.9 -33.3,93.3C-33.1,94.8 -31.4,96.9 -31.1,97.6" fill="none" stroke="#e29748" stroke-width="3.6" stroke-linecap="round" stroke-linejoin="round"/><path d="M52.8,135.3C51.7,135.7 48.6,137.2 46.3,137.9C44.0,138.6 41.5,139.3 39.0,139.7C36.4,140.0 33.7,140.0 31.0,140.1C28.4,140.2 25.5,139.7 23.0,140.0C20.5,140.3 18.5,141.8 16.0,142.1C13.5,142.5 10.7,142.1 8.0,142.1C5.3,142.2 2.5,142.8 0.0,142.5C-2.3,142.1 -4.1,140.5 -6.5,140.0C-8.9,139.5 -12.2,140.2 -14.5,139.6C-16.7,139.0 -18.5,137.7 -20.2,136.6C-21.9,135.4 -23.1,134.1 -24.7,132.9C-26.3,131.8 -29.1,130.2 -30.0,129.6" fill="none" stroke="#ac7337" stroke-width="4.9" stroke-linecap="round" stroke-linejoin="round" transform="translate(0 1)"/><path d="M52.8,135.3C51.7,135.7 48.6,137.2 46.3,137.9C44.0,138.6 41.5,139.3 39.0,139.7C36.4,140.0 33.7,140.0 31.0,140.1C28.4,140.2 25.5,139.7 23.0,140.0C20.5,140.3 18.5,141.8 16.0,142.1C13.5,142.5 10.7,142.1 8.0,142.1C5.3,142.2 2.5,142.8 0.0,142.5C-2.3,142.1 -4.1,140.5 -6.5,140.0C-8.9,139.5 -12.2,140.2 -14.5,139.6C-16.7,139.0 -18.5,137.7 -20.2,136.6C-21.9,135.4 -23.1,134.1 -24.7,132.9C-26.3,131.8 -29.1,130.2 -30.0,129.6" fill="none" stroke="#e29748" stroke-width="3.6" stroke-linecap="round" stroke-linejoin="round"/><path d="M134.8,102.9C136.0,103.2 139.6,104.2 141.9,104.9C144.2,105.7 146.7,106.3 148.7,107.3C150.7,108.2 152.4,109.4 153.9,110.6C155.5,111.8 157.2,113.0 158.1,114.4C159.0,115.7 159.6,117.3 159.3,118.7C158.9,120.1 156.2,121.3 156.0,122.7C155.7,124.1 157.7,125.5 157.9,127.0C158.2,128.4 157.8,129.9 157.4,131.4C157.0,132.8 155.5,134.2 155.5,135.6C155.5,137.1 157.2,138.5 157.5,139.9C157.7,141.3 156.8,142.8 156.8,144.3C156.8,145.7 157.3,147.9 157.3,148.7" fill="none" stroke="#ac7337" stroke-width="4.9" stroke-linecap="round" stroke-linejoin="round" transform="translate(0 1)"/><path d="M134.8,102.9C136.0,103.2 139.6,104.2 141.9,104.9C144.2,105.7 146.7,106.3 148.7,107.3C150.7,108.2 152.4,109.4 153.9,110.6C155.5,111.8 157.2,113.0 158.1,114.4C159.0,115.7 159.6,117.3 159.3,118.7C158.9,120.1 156.2,121.3 156.0,122.7C155.7,124.1 157.7,125.5 157.9,127.0C158.2,128.4 157.8,129.9 157.4,131.4C157.0,132.8 155.5,134.2 155.5,135.6C155.5,137.1 157.2,138.5 157.5,139.9C157.7,141.3 156.8,142.8 156.8,144.3C156.8,145.7 157.3,147.9 157.3,148.7" fill="none" stroke="#e29748" stroke-width="3.6" stroke-linecap="round" stroke-linejoin="round"/><path d="M59.3,130.2C59.2,129.5 58.5,127.2 59.0,125.8C59.6,124.4 62.3,123.3 62.6,121.9C62.8,120.5 60.6,119.1 60.4,117.7C60.2,116.2 60.3,114.6 61.3,113.3C62.2,111.9 64.4,110.9 65.8,109.7C67.3,108.4 69.4,107.2 69.9,105.9C70.3,104.5 69.2,102.9 68.5,101.5C67.8,100.1 66.4,98.9 65.4,97.5C64.5,96.1 62.9,94.7 62.9,93.3C62.9,91.9 65.1,90.6 65.5,89.2C66.0,87.7 65.0,86.2 65.4,84.8C65.9,83.3 67.8,81.3 68.3,80.7" fill="none" stroke="#ac7337" stroke-width="4.9" stroke-linecap="round" stroke-linejoin="round" transform="translate(0 1)"/><path d="M59.3,130.2C59.2,129.5 58.5,127.2 59.0,125.8C59.6,124.4 62.3,123.3 62.6,121.9C62.8,120.5 60.6,119.1 60.4,117.7C60.2,116.2 60.3,114.6 61.3,113.3C62.2,111.9 64.4,110.9 65.8,109.7C67.3,108.4 69.4,107.2 69.9,105.9C70.3,104.5 69.2,102.9 68.5,101.5C67.8,100.1 66.4,98.9 65.4,97.5C64.5,96.1 62.9,94.7 62.9,93.3C62.9,91.9 65.1,90.6 65.5,89.2C66.0,87.7 65.0,86.2 65.4,84.8C65.9,83.3 67.8,81.3 68.3,80.7" fill="none" stroke="#e29748" stroke-width="3.6" stroke-linecap="round" stroke-linejoin="round"/><ellipse cx="124" cy="130.6" rx="44.8" ry="32" fill="#93622f" opacity="0.2"/><ellipse cx="79.2" cy="104.8" rx="22.4" ry="9.6" fill="#ffffff" opacity="0.1"/></g><g transform="translate(86.2 93.6) scale(0.94 0.94) rotate(-78.0)"><circle cx="-0.7" cy="1.3" r="1.0" fill="#e1ad68"/><circle cx="0.6" cy="1.0" r="0.7" fill="#e1ad68"/><circle cx="2.2" cy="-1.2" r="1.1" fill="#e1ad68"/><circle cx="-1.2" cy="-1.2" r="0.6" fill="#e1ad68"/><circle cx="-1.8" cy="0.7" r="0.8" fill="#e1ad68"/><circle cx="-0.6" cy="0.9" r="0.8" fill="#b98242"/><circle cx="-2.4" cy="0.2" r="0.8" fill="#b98242"/></g><g transform="translate(74.0 96.1) scale(0.94 0.94) rotate(137.0)"><circle cx="2.3" cy="-0.7" r="0.9" fill="#e1ad68"/><circle cx="1.4" cy="1.6" r="0.9" fill="#e1ad68"/><circle cx="-0.0" cy="1.4" r="0.6" fill="#e1ad68"/><circle cx="-1.7" cy="1.2" r="0.7" fill="#e1ad68"/><circle cx="-0.0" cy="1.8" r="1.1" fill="#e1ad68"/><circle cx="-1.8" cy="-0.7" r="0.7" fill="#b98242"/><circle cx="-0.6" cy="0.3" r="0.7" fill="#b98242"/></g><g transform="translate(108.9 93.8) scale(0.95 0.95) rotate(83.5)"><circle cx="1.5" cy="0.9" r="0.7" fill="#e1ad68"/><circle cx="-1.1" cy="1.0" r="1.0" fill="#e1ad68"/><circle cx="0.9" cy="1.3" r="0.8" fill="#e1ad68"/><circle cx="1.6" cy="1.0" r="0.9" fill="#e1ad68"/><circle cx="0.4" cy="-0.2" r="0.7" fill="#e1ad68"/><circle cx="1.0" cy="-1.7" r="0.8" fill="#b98242"/><circle cx="1.4" cy="-0.0" r="0.7" fill="#b98242"/></g><g transform="translate(122.5 97.4) scale(0.95 0.76) rotate(-45.9)"><path d="M-2.8,-1.1C-2.3,-1.7 -0.6,-2.4 0.2,-2.4C1.2,-2.5 2.4,-2.0 2.9,-1.4C3.4,-0.7 3.5,0.7 3.0,1.4C2.5,2.2 0.9,3.1 -0.0,3.1C-1.0,3.1 -2.5,2.0 -3.0,1.3C-3.5,0.6 -3.4,-0.4 -2.8,-1.1Z" fill="#f5c93a"/><path d="M-2.2,-0.2C-2.1,-0.8 -0.5,-2.0 0.0,-2.0C0.6,-2.0 1.1,-0.9 1.4,-0.3C1.8,0.1 2.3,0.6 2.0,1.0C1.7,1.3 0.4,1.9 -0.3,1.7C-1.0,1.5 -2.2,0.3 -2.2,-0.2Z" fill="#fff4cf" transform="translate(-0.4 -0.8)"/></g><g transform="translate(100.9 92.8) scale(0.96 0.77) rotate(-16.6)"><path d="M-3.3,-0.5C-2.8,-1.3 -0.9,-2.7 0.0,-2.9C1.1,-3.0 2.4,-2.0 3.0,-1.4C3.6,-0.8 4.2,-0.2 3.7,0.5C3.1,1.3 0.9,3.0 -0.1,3.2C-1.3,3.4 -2.8,2.4 -3.4,1.8C-3.9,1.2 -3.9,0.2 -3.3,-0.5Z" fill="#f5c93a"/><path d="M2.0,0.4C2.0,0.8 1.5,1.3 0.9,1.3C0.3,1.3 -1.1,0.8 -1.5,0.4C-1.8,0.0 -1.6,-0.6 -1.2,-0.9C-0.7,-1.2 0.5,-1.5 1.0,-1.2C1.5,-1.0 2.0,-0.0 2.0,0.4Z" fill="#fff4cf" transform="translate(0.7 0.1)"/></g><g transform="translate(70.1 97.3) scale(0.96 0.77) rotate(-145.7)"><path d="M-0.5,-3.5C0.5,-3.5 3.2,-2.2 3.8,-1.3C4.3,-0.5 3.4,0.9 2.8,1.6C2.1,2.3 1.0,2.9 0.0,2.9C-1.0,2.9 -3.0,2.3 -3.4,1.6C-3.8,0.8 -2.9,-0.5 -2.4,-1.4C-1.9,-2.2 -1.5,-3.5 -0.5,-3.5Z" fill="#f5c93a"/><path d="M1.7,-0.6C2.0,-0.1 1.7,1.3 1.2,1.7C0.8,2.1 -0.4,2.1 -1.0,1.7C-1.6,1.3 -2.3,-0.1 -2.2,-0.7C-2.1,-1.2 -1.2,-1.4 -0.5,-1.4C0.0,-1.4 1.4,-1.2 1.7,-0.6Z" fill="#fff4cf" transform="translate(0.5 0.3)"/></g><g transform="translate(60.9 101.2) scale(0.91 0.73) rotate(63.7)"><path d="M-6,6C-12,1 -9,-9 0,-9C8,-9 11,-2 7,4" fill="none" stroke="#bf6946" stroke-width="8.6" stroke-linecap="round" stroke-linejoin="round"/><path d="M-6,6C-12,1 -9,-9 0,-9C8,-9 11,-2 7,4" fill="none" stroke="#f5875a" stroke-width="7" stroke-linecap="round" stroke-linejoin="round"/><path d="M-6,-0.9L-10,-0.9" fill="none" stroke="#fbc9b5" stroke-width="1.5" stroke-linecap="round" stroke-linejoin="round"/><path d="M-4.5,-4.8L-7.6,-7.4" fill="none" stroke="#fbc9b5" stroke-width="1.5" stroke-linecap="round" stroke-linejoin="round"/><path d="M-1.0,-6.9L-1.7,-10.8" fill="none" stroke="#fbc9b5" stroke-width="1.5" stroke-linecap="round" stroke-linejoin="round"/><path d="M3.0,-6.1L5.0,-9.6" fill="none" stroke="#fbc9b5" stroke-width="1.5" stroke-linecap="round" stroke-linejoin="round"/><path d="M5.6,-3.0L9.3,-4.4" fill="none" stroke="#fbc9b5" stroke-width="1.5" stroke-linecap="round" stroke-linejoin="round"/><path d="M5,3L12,1L10.5,6L12,10.5L5.5,7Z" fill="#e0492a"/></g><g transform="translate(80.4 95.0) scale(0.92 0.74) rotate(113.7)"><path d="M-6,6C-12,1 -9,-9 0,-9C8,-9 11,-2 7,4" fill="none" stroke="#bf6946" stroke-width="8.6" stroke-linecap="round" stroke-linejoin="round"/><path d="M-6,6C-12,1 -9,-9 0,-9C8,-9 11,-2 7,4" fill="none" stroke="#f5875a" stroke-width="7" stroke-linecap="round" stroke-linejoin="round"/><path d="M-6,-0.9L-10,-0.9" fill="none" stroke="#fbc9b5" stroke-width="1.5" stroke-linecap="round" stroke-linejoin="round"/><path d="M-4.5,-4.8L-7.6,-7.4" fill="none" stroke="#fbc9b5" stroke-width="1.5" stroke-linecap="round" stroke-linejoin="round"/><path d="M-1.0,-6.9L-1.7,-10.8" fill="none" stroke="#fbc9b5" stroke-width="1.5" stroke-linecap="round" stroke-linejoin="round"/><path d="M3.0,-6.1L5.0,-9.6" fill="none" stroke="#fbc9b5" stroke-width="1.5" stroke-linecap="round" stroke-linejoin="round"/><path d="M5.6,-3.0L9.3,-4.4" fill="none" stroke="#fbc9b5" stroke-width="1.5" stroke-linecap="round" stroke-linejoin="round"/><path d="M5,3L12,1L10.5,6L12,10.5L5.5,7Z" fill="#e0492a"/></g><g transform="translate(55.7 104.9) scale(0.92 0.74) rotate(23.2)"><path d="M-6,6C-12,1 -9,-9 0,-9C8,-9 11,-2 7,4" fill="none" stroke="#bf6946" stroke-width="8.6" stroke-linecap="round" stroke-linejoin="round"/><path d="M-6,6C-12,1 -9,-9 0,-9C8,-9 11,-2 7,4" fill="none" stroke="#f5875a" stroke-width="7" stroke-linecap="round" stroke-linejoin="round"/><path d="M-6,-0.9L-10,-0.9" fill="none" stroke="#fbc9b5" stroke-width="1.5" stroke-linecap="round" stroke-linejoin="round"/><path d="M-4.5,-4.8L-7.6,-7.4" fill="none" stroke="#fbc9b5" stroke-width="1.5" stroke-linecap="round" stroke-linejoin="round"/><path d="M-1.0,-6.9L-1.7,-10.8" fill="none" stroke="#fbc9b5" stroke-width="1.5" stroke-linecap="round" stroke-linejoin="round"/><path d="M3.0,-6.1L5.0,-9.6" fill="none" stroke="#fbc9b5" stroke-width="1.5" stroke-linecap="round" stroke-linejoin="round"/><path d="M5.6,-3.0L9.3,-4.4" fill="none" stroke="#fbc9b5" stroke-width="1.5" stroke-linecap="round" stroke-linejoin="round"/><path d="M5,3L12,1L10.5,6L12,10.5L5.5,7Z" fill="#e0492a"/></g><g transform="translate(123.4 99.3) scale(0.98 0.78) rotate(119.8)"><path d="M2.2,2.2C1.4,2.6 -1.0,3.3 -2.1,2.8C-3.2,2.3 -4.2,0.2 -4.0,-0.7C-3.8,-1.7 -1.6,-2.7 -0.7,-3.0C0.1,-3.3 0.8,-3.4 1.4,-2.7C1.9,-2.1 2.4,-0.0 2.6,0.7C2.7,1.5 3.0,1.9 2.2,2.2Z" fill="#f5c93a"/><path d="M0.2,-1.2C0.8,-1.3 1.5,-0.9 1.6,-0.5C1.8,-0.1 1.8,0.9 1.4,1.2C1.0,1.5 0.0,1.4 -0.5,1.2C-1.0,1.0 -1.9,0.4 -1.8,0.0C-1.7,-0.3 -0.3,-1.1 0.2,-1.2Z" fill="#fff4cf" transform="translate(0.6 0.3)"/></g><g transform="translate(111.6 96.2) scale(0.93 0.74) rotate(-20.2)"><path d="M-6,6C-12,1 -9,-9 0,-9C8,-9 11,-2 7,4" fill="none" stroke="#bf6946" stroke-width="8.6" stroke-linecap="round" stroke-linejoin="round"/><path d="M-6,6C-12,1 -9,-9 0,-9C8,-9 11,-2 7,4" fill="none" stroke="#f5875a" stroke-width="7" stroke-linecap="round" stroke-linejoin="round"/><path d="M-6,-0.9L-10,-0.9" fill="none" stroke="#fbc9b5" stroke-width="1.5" stroke-linecap="round" stroke-linejoin="round"/><path d="M-4.5,-4.8L-7.6,-7.4" fill="none" stroke="#fbc9b5" stroke-width="1.5" stroke-linecap="round" stroke-linejoin="round"/><path d="M-1.0,-6.9L-1.7,-10.8" fill="none" stroke="#fbc9b5" stroke-width="1.5" stroke-linecap="round" stroke-linejoin="round"/><path d="M3.0,-6.1L5.0,-9.6" fill="none" stroke="#fbc9b5" stroke-width="1.5" stroke-linecap="round" stroke-linejoin="round"/><path d="M5.6,-3.0L9.3,-4.4" fill="none" stroke="#fbc9b5" stroke-width="1.5" stroke-linecap="round" stroke-linejoin="round"/><path d="M5,3L12,1L10.5,6L12,10.5L5.5,7Z" fill="#e0492a"/></g><g transform="translate(95.9 95.1) scale(0.98 0.98) rotate(40.1)"><circle cx="-1.5" cy="0.4" r="0.9" fill="#e1ad68"/><circle cx="-1.3" cy="-1.5" r="0.9" fill="#e1ad68"/><circle cx="1.0" cy="-1.7" r="0.6" fill="#e1ad68"/><circle cx="-0.9" cy="-0.2" r="0.9" fill="#e1ad68"/><circle cx="2.4" cy="0.2" r="0.9" fill="#e1ad68"/><circle cx="0.6" cy="0.9" r="0.7" fill="#b98242"/><circle cx="0.3" cy="-0.8" r="0.5" fill="#b98242"/></g><g transform="translate(76.7 98.7) scale(0.99 0.79) rotate(158.8)"><path d="M-6,2Q0,-2.3 6,2" fill="none" stroke="#e2d7e8" stroke-width="2.4" stroke-linecap="round" stroke-linejoin="round" transform="translate(0 .5)"/><path d="M-6,2Q0,-2.2 6,2" fill="none" stroke="#f7f2ea" stroke-width="2" stroke-linecap="round" stroke-linejoin="round"/></g><g transform="translate(134.4 106.3) scale(0.99 0.79) rotate(32.8)"><path d="M-6,2Q0,-2.0 6,2" fill="none" stroke="#e2d7e8" stroke-width="2.4" stroke-linecap="round" stroke-linejoin="round" transform="translate(0 .5)"/><path d="M-6,2Q0,-2.2 6,2" fill="none" stroke="#f7f2ea" stroke-width="2" stroke-linecap="round" stroke-linejoin="round"/></g><g transform="translate(63.3 104.0) scale(0.99 0.79) rotate(24.4)"><path d="M-0.0,-2.1C0.8,-2.1 1.8,-1.6 2.4,-1.1C3.0,-0.6 3.8,0.2 3.6,0.7C3.4,1.3 2.0,1.8 1.0,2.0C0.0,2.2 -1.5,2.4 -2.1,1.8C-2.7,1.2 -3.0,-0.7 -2.7,-1.4C-2.3,-2.0 -0.9,-2.2 -0.0,-2.1Z" fill="#f5c93a"/><path d="M-1.5,-1.4C-0.8,-1.7 1.4,-1.4 2.0,-1.1C2.5,-0.8 2.0,-0.2 1.7,0.2C1.3,0.7 0.6,1.8 -0.0,1.9C-0.6,2.0 -1.8,1.1 -2.1,0.6C-2.3,0.0 -2.2,-1.1 -1.5,-1.4Z" fill="#fff4cf" transform="translate(-0.8 0.0)"/></g><g transform="translate(121.9 102.4) scale(0.99 0.79) rotate(-157.7)"><path d="M-1.1,3.9C-2.7,3.7 -4.5,3.1 -5.5,2.3C-6.4,1.5 -7.2,0.6 -6.9,-0.7C-6.6,-2.0 -5.1,-4.6 -3.8,-5.5C-2.4,-6.4 -0.5,-6.4 1.3,-6.0C3.1,-5.6 6.2,-4.2 7.2,-3.0C8.2,-1.7 7.7,0.3 7.2,1.4C6.6,2.5 5.3,3.3 3.9,3.7C2.5,4.1 0.3,4.2 -1.1,3.9Z" fill="#c6cfac" transform="translate(.5 1)"/><path d="M-1.1,3.9C-2.7,3.7 -4.5,3.1 -5.5,2.3C-6.4,1.5 -7.2,0.6 -6.9,-0.7C-6.6,-2.0 -5.1,-4.6 -3.8,-5.5C-2.4,-6.4 -0.5,-6.4 1.3,-6.0C3.1,-5.6 6.2,-4.2 7.2,-3.0C8.2,-1.7 7.7,0.3 7.2,1.4C6.6,2.5 5.3,3.3 3.9,3.7C2.5,4.1 0.3,4.2 -1.1,3.9Z" fill="#e6f1c8"/><path d="M-5,0.0Q0,-1.4 5,0.5" fill="none" stroke="#ffffff" stroke-width="1.5" stroke-linecap="round" stroke-linejoin="round"/></g><g transform="translate(105.0 98.6) scale(0.99 0.99) rotate(87.6)"><circle cx="-2.3" cy="-0.9" r="0.9" fill="#e1ad68"/><circle cx="1.3" cy="-0.6" r="0.7" fill="#e1ad68"/><circle cx="-1.9" cy="-0.5" r="0.6" fill="#e1ad68"/><circle cx="1.0" cy="0.9" r="0.6" fill="#e1ad68"/><circle cx="1.5" cy="-0.4" r="0.7" fill="#e1ad68"/><circle cx="-0.8" cy="-1.5" r="0.6" fill="#b98242"/><circle cx="-0.9" cy="1.3" r="0.6" fill="#b98242"/></g><g transform="translate(88.3 99.2) scale(1.00 0.80) rotate(97.9)"><path d="M-7,0Q0,-1.5 7,0" fill="none" stroke="#3e7e22" stroke-width="3.2" stroke-linecap="round" stroke-linejoin="round" transform="translate(0 .6)"/><path d="M-7,0Q0,-1.5 7,0" fill="none" stroke="#5ea636" stroke-width="2.7" stroke-linecap="round" stroke-linejoin="round"/></g><g transform="translate(55.2 112.6) scale(1.01 0.80) rotate(82.9)"><path d="M-2.7,1.8C-3.1,0.9 -3.9,-1.5 -3.3,-2.3C-2.6,-3.2 0.2,-3.4 1.2,-3.3C2.2,-3.1 2.3,-2.5 2.7,-1.5C3.0,-0.6 4.0,1.4 3.4,2.2C2.8,3.0 0.1,3.3 -0.8,3.3C-1.9,3.2 -2.3,2.8 -2.7,1.8Z" fill="#f5c93a"/><path d="M2.3,0.0C2.7,0.5 2.7,1.1 2.0,1.2C1.2,1.4 -1.4,1.1 -2.0,0.9C-2.7,0.6 -2.3,0.1 -2.0,-0.2C-1.7,-0.6 -1.1,-1.5 -0.4,-1.5C0.3,-1.4 1.9,-0.3 2.3,0.0Z" fill="#fff4cf" transform="translate(-0.7 -0.4)"/></g><g transform="translate(135.5 112.8) scale(1.01 0.81) rotate(-66.7)"><path d="M-7,0Q0,-1.5 7,0" fill="none" stroke="#3e7e22" stroke-width="3.2" stroke-linecap="round" stroke-linejoin="round" transform="translate(0 .6)"/><path d="M-7,0Q0,-1.5 7,0" fill="none" stroke="#5ea636" stroke-width="2.7" stroke-linecap="round" stroke-linejoin="round"/></g><g transform="translate(77.5 105.4) scale(1.01 0.81) rotate(-91.2)"><path d="M-7,0Q0,-1.5 7,0" fill="none" stroke="#3e7e22" stroke-width="3.2" stroke-linecap="round" stroke-linejoin="round" transform="translate(0 .6)"/><path d="M-7,0Q0,-1.5 7,0" fill="none" stroke="#5ea636" stroke-width="2.7" stroke-linecap="round" stroke-linejoin="round"/></g><g transform="translate(107.4 107.0) scale(1.02 1.02) rotate(144.3)"><circle cx="-1.9" cy="-0.6" r="0.8" fill="#e1ad68"/><circle cx="1.7" cy="0.8" r="0.7" fill="#e1ad68"/><circle cx="0.6" cy="-0.0" r="1.1" fill="#e1ad68"/><circle cx="-0.6" cy="-0.6" r="0.8" fill="#e1ad68"/><circle cx="-2.0" cy="0.3" r="1.1" fill="#e1ad68"/><circle cx="1.4" cy="-0.4" r="0.5" fill="#b98242"/><circle cx="0.6" cy="0.3" r="0.6" fill="#b98242"/></g><g transform="translate(60.9 114.9) scale(1.02 0.81) rotate(89.7)"><path d="M-3.9,1.5C-4.5,0.7 -4.1,-0.9 -3.5,-1.6C-2.8,-2.2 -1.1,-2.0 -0.1,-2.1C0.8,-2.2 2.0,-2.8 2.5,-2.2C3.0,-1.5 3.4,0.6 3.0,1.6C2.7,2.5 1.4,3.4 0.3,3.4C-0.8,3.4 -3.3,2.3 -3.9,1.5Z" fill="#f5c93a"/><path d="M2.2,-0.3C2.7,0.1 2.3,0.4 1.8,0.8C1.3,1.2 -0.0,2.2 -0.7,1.9C-1.4,1.6 -2.4,-0.2 -2.4,-0.9C-2.5,-1.5 -1.8,-2.0 -1.1,-1.9C-0.3,-1.8 1.7,-0.7 2.2,-0.3Z" fill="#fff4cf" transform="translate(-0.4 0.4)"/></g><g transform="translate(95.2 108.0) scale(1.02 0.82) rotate(136.9)"><path d="M-6,2Q0,-4.8 6,2" fill="none" stroke="#e2d7e8" stroke-width="2.4" stroke-linecap="round" stroke-linejoin="round" transform="translate(0 .5)"/><path d="M-6,2Q0,-3.7 6,2" fill="none" stroke="#f7f2ea" stroke-width="2" stroke-linecap="round" stroke-linejoin="round"/></g><g transform="translate(122.0 113.7) scale(1.03 0.82) rotate(-33.0)"><path d="M1.8,3.7C-0.1,4.0 -3.3,4.2 -4.6,3.7C-6.0,3.2 -6.1,1.7 -6.3,0.6C-6.5,-0.4 -6.1,-1.6 -5.7,-2.6C-5.2,-3.7 -5.1,-5.2 -3.5,-5.7C-1.9,-6.1 2.0,-6.2 3.9,-5.5C5.9,-4.8 7.5,-2.7 8.1,-1.4C8.6,-0.2 8.2,0.9 7.2,1.8C6.1,2.7 3.8,3.4 1.8,3.7Z" fill="#c6cfac" transform="translate(.5 1)"/><path d="M1.8,3.7C-0.1,4.0 -3.3,4.2 -4.6,3.7C-6.0,3.2 -6.1,1.7 -6.3,0.6C-6.5,-0.4 -6.1,-1.6 -5.7,-2.6C-5.2,-3.7 -5.1,-5.2 -3.5,-5.7C-1.9,-6.1 2.0,-6.2 3.9,-5.5C5.9,-4.8 7.5,-2.7 8.1,-1.4C8.6,-0.2 8.2,0.9 7.2,1.8C6.1,2.7 3.8,3.4 1.8,3.7Z" fill="#e6f1c8"/><path d="M-5,0.5Q0,0.0 5,0.8" fill="none" stroke="#ffffff" stroke-width="1.5" stroke-linecap="round" stroke-linejoin="round"/></g><g transform="translate(82.3 112.1) scale(1.03 0.82) rotate(-74.6)"><path d="M-7,0Q0,-1.5 7,0" fill="none" stroke="#3e7e22" stroke-width="3.2" stroke-linecap="round" stroke-linejoin="round" transform="translate(0 .6)"/><path d="M-7,0Q0,-1.5 7,0" fill="none" stroke="#5ea636" stroke-width="2.7" stroke-linecap="round" stroke-linejoin="round"/></g><g transform="translate(64.7 120.3) scale(1.04 0.83) rotate(-160.5)"><path d="M-7,0Q0,-1.5 7,0" fill="none" stroke="#3e7e22" stroke-width="3.2" stroke-linecap="round" stroke-linejoin="round" transform="translate(0 .6)"/><path d="M-7,0Q0,-1.5 7,0" fill="none" stroke="#5ea636" stroke-width="2.7" stroke-linecap="round" stroke-linejoin="round"/></g><g transform="translate(96.4 118.5) scale(1.04 0.83) rotate(-102.7)"><path d="M-3.3,3.3C-5.4,3.0 -7.5,3.6 -8.1,2.6C-8.6,1.7 -7.3,-1.2 -6.5,-2.3C-5.7,-3.4 -5.1,-3.6 -3.4,-3.9C-1.6,-4.1 2.2,-4.2 4.1,-3.9C6.0,-3.7 7.6,-3.3 8.0,-2.4C8.5,-1.6 7.3,0.0 6.7,1.2C6.0,2.4 5.8,4.2 4.1,4.6C2.4,4.9 -1.3,3.6 -3.3,3.3Z" fill="#c6cfac" transform="translate(.5 1)"/><path d="M-3.3,3.3C-5.4,3.0 -7.5,3.6 -8.1,2.6C-8.6,1.7 -7.3,-1.2 -6.5,-2.3C-5.7,-3.4 -5.1,-3.6 -3.4,-3.9C-1.6,-4.1 2.2,-4.2 4.1,-3.9C6.0,-3.7 7.6,-3.3 8.0,-2.4C8.5,-1.6 7.3,0.0 6.7,1.2C6.0,2.4 5.8,4.2 4.1,4.6C2.4,4.9 -1.3,3.6 -3.3,3.3Z" fill="#e6f1c8"/><path d="M-5,-0.3Q0,-0.7 5,0.1" fill="none" stroke="#ffffff" stroke-width="1.5" stroke-linecap="round" stroke-linejoin="round"/></g><g transform="translate(84.4 122.2) scale(1.00 0.80) rotate(-96.4)"><path d="M-6,6C-12,1 -9,-9 0,-9C8,-9 11,-2 7,4" fill="none" stroke="#bf6946" stroke-width="8.6" stroke-linecap="round" stroke-linejoin="round"/><path d="M-6,6C-12,1 -9,-9 0,-9C8,-9 11,-2 7,4" fill="none" stroke="#f5875a" stroke-width="7" stroke-linecap="round" stroke-linejoin="round"/><path d="M-6,-0.9L-10,-0.9" fill="none" stroke="#fbc9b5" stroke-width="1.5" stroke-linecap="round" stroke-linejoin="round"/><path d="M-4.5,-4.8L-7.6,-7.4" fill="none" stroke="#fbc9b5" stroke-width="1.5" stroke-linecap="round" stroke-linejoin="round"/><path d="M-1.0,-6.9L-1.7,-10.8" fill="none" stroke="#fbc9b5" stroke-width="1.5" stroke-linecap="round" stroke-linejoin="round"/><path d="M3.0,-6.1L5.0,-9.6" fill="none" stroke="#fbc9b5" stroke-width="1.5" stroke-linecap="round" stroke-linejoin="round"/><path d="M5.6,-3.0L9.3,-4.4" fill="none" stroke="#fbc9b5" stroke-width="1.5" stroke-linecap="round" stroke-linejoin="round"/><path d="M5,3L12,1L10.5,6L12,10.5L5.5,7Z" fill="#e0492a"/></g><g transform="translate(109.7 122.9) scale(1.05 1.05) rotate(88.1)"><circle cx="1.1" cy="-0.4" r="0.7" fill="#e1ad68"/><circle cx="2.6" cy="-0.4" r="0.6" fill="#e1ad68"/><circle cx="-0.2" cy="0.7" r="1.0" fill="#e1ad68"/><circle cx="0.4" cy="-0.9" r="1.0" fill="#e1ad68"/><circle cx="1.9" cy="-1.4" r="0.9" fill="#e1ad68"/><circle cx="1.4" cy="1.3" r="0.6" fill="#b98242"/><circle cx="0.8" cy="0.1" r="0.7" fill="#b98242"/></g><g transform="translate(150 132) scale(1.35 1.08) rotate(20)"><path d="M-10,0A10,10 0 0,0 10,0Z" fill="#eab308"/><path d="M-8.4,.2A8.4,8.4 0 0,0 8.4,.2Z" fill="#fff2a8"/><path d="M0,1.4L4.6,4.6" fill="none" stroke="#f5d547" stroke-width="1.5" stroke-linecap="round" stroke-linejoin="round"/><path d="M0,1.4L4.0e-16,6.6" fill="none" stroke="#f5d547" stroke-width="1.5" stroke-linecap="round" stroke-linejoin="round"/><path d="M0,1.4L-4.6,4.6" fill="none" stroke="#f5d547" stroke-width="1.5" stroke-linecap="round" stroke-linejoin="round"/><path d="M-9,0H9" fill="none" stroke="#fffbe0" stroke-width="1.5" stroke-linecap="round" stroke-linejoin="round"/></g><g transform="translate(84 94) scale(1.15 1.15) rotate(0)"><path d="M0,4Q-2.4,-4.8 -8.2,-9.6" fill="none" stroke="#5f9e45" stroke-width="1.5" stroke-linecap="round" stroke-linejoin="round"/><path d="M0,4Q-1.1,-4.5 -3.7,-9.1" fill="none" stroke="#5f9e45" stroke-width="1.5" stroke-linecap="round" stroke-linejoin="round"/><path d="M0,4Q0.4,-6.0 1.5,-12.1" fill="none" stroke="#5f9e45" stroke-width="1.5" stroke-linecap="round" stroke-linejoin="round"/><path d="M0,4Q2.5,-3.8 8.4,-7.7" fill="none" stroke="#5f9e45" stroke-width="1.5" stroke-linecap="round" stroke-linejoin="round"/><g transform="translate(-8.2 -9.6) rotate(25.4) scale(1.18)"><circle cx="-2.7" cy="-1.2" r="2.4" fill="#56a95b"/><circle cx="0" cy="-2.8" r="2.5" fill="#56a95b"/><circle cx="2.7" cy="-1.2" r="2.4" fill="#56a95b"/><circle cx="0" cy="0.2" r="2.4" fill="#56a95b"/><circle cx="-0.8" cy="-2.6" r="1" fill="#91c794"/></g><g transform="translate(-3.7 -9.1) rotate(-9.1) scale(1.26)"><circle cx="-2.7" cy="-1.2" r="2.4" fill="#3f9d45"/><circle cx="0" cy="-2.8" r="2.5" fill="#3f9d45"/><circle cx="2.7" cy="-1.2" r="2.4" fill="#3f9d45"/><circle cx="0" cy="0.2" r="2.4" fill="#3f9d45"/><circle cx="-0.8" cy="-2.6" r="1" fill="#82bf86"/></g><g transform="translate(1.5 -12.1) rotate(-19.2) scale(1.22)"><circle cx="-2.7" cy="-1.2" r="2.4" fill="#56a95b"/><circle cx="0" cy="-2.8" r="2.5" fill="#56a95b"/><circle cx="2.7" cy="-1.2" r="2.4" fill="#56a95b"/><circle cx="0" cy="0.2" r="2.4" fill="#56a95b"/><circle cx="-0.8" cy="-2.6" r="1" fill="#91c794"/></g><g transform="translate(8.4 -7.7) rotate(-26.7) scale(1.32)"><circle cx="-2.7" cy="-1.2" r="2.4" fill="#56a95b"/><circle cx="0" cy="-2.8" r="2.5" fill="#56a95b"/><circle cx="2.7" cy="-1.2" r="2.4" fill="#56a95b"/><circle cx="0" cy="0.2" r="2.4" fill="#56a95b"/><circle cx="-0.8" cy="-2.6" r="1" fill="#91c794"/></g></g></g></svg>
