<svg xmlns="http://www.w3.org/2000/svg" viewBox="0 0 200 200"><title>Sok pomarańczowy 0,33 l</title><defs><clipPath id="k1"><path d="M-21,-8Q-21,0 -15,0H15Q21,0 21,-8V-71.6C21,-89.6 9,-94.7 9,-110.0V-122H-9V-110.0C-9,-94.7 -21,-89.6 -21,-71.6Z"/></clipPath><clipPath id="k2"><path d="M-21,-8Q-21,0 -15,0H15Q21,0 21,-8V-71.6C21,-89.6 9,-94.7 9,-110.0V-122H-9V-110.0C-9,-94.7 -21,-89.6 -21,-71.6Z"/></clipPath></defs><rect width="200" height="200" fill="#fbf3ea"/><circle cx="37.8" cy="62.0" r="21.2" fill="#ddeaf4"/><circle cx="69.6" cy="51.4" r="29.6" fill="#ddeaf4"/><circle cx="99.3" cy="66.2" r="19.0" fill="#ddeaf4"/><rect x="16.6" y="64.1" width="101.7" height="21.2" rx="10.6" fill="#ddeaf4"/><circle cx="120.8" cy="89.4" r="15.2" fill="#ebf2f9"/><circle cx="143.6" cy="81.8" r="21.2" fill="#ebf2f9"/><circle cx="164.9" cy="92.4" r="13.6" fill="#ebf2f9"/><rect x="105.6" y="90.9" width="72.9" height="15.2" rx="7.6" fill="#ebf2f9"/><g transform="translate(14.6 29.4) scale(1.25 1.25) rotate(132.8)"><path d="M-5,0Q0,-2.6 5,0Q0,2.6 -5,0Z" fill="#c9a9c9"/></g><g transform="translate(175.7 26.3) scale(1.00 1.00) rotate(77.3)"><path d="M-5,0Q0,-2.6 5,0Q0,2.6 -5,0Z" fill="#8fa9b8"/></g><g transform="translate(180.5 144.7) scale(1.03 1.03) rotate(158.4)"><path d="M-5,0Q0,-2.6 5,0Q0,2.6 -5,0Z" fill="#f0b27a"/></g><g transform="translate(12.5 118.5) scale(1.07 1.07) rotate(167.4)"><path d="M-5,0Q0,-2.6 5,0Q0,2.6 -5,0Z" fill="#f0b27a"/></g><g transform="translate(28.6 183.2) scale(1.07 1.07) rotate(94.5)"><path d="M-5,0Q0,-2.6 5,0Q0,2.6 -5,0Z" fill="#f0b27a"/></g><g transform="translate(168.1 190.5) scale(1.00 1.00) rotate(15.4)"><path d="M-5,0Q0,-2.6 5,0Q0,2.6 -5,0Z" fill="#c9a9c9"/></g><g transform="translate(100 110) scale(1.06) translate(-100 -110)"><g transform="translate(88 182) scale(1)"><ellipse cx="0" cy="1" rx="29.4" ry="5.5" fill="#8f6aa0" opacity="0.2"/><path d="M-21,-8Q-21,0 -15,0H15Q21,0 21,-8V-71.6C21,-89.6 9,-94.7 9,-110.0V-122H-9V-110.0C-9,-94.7 -21,-89.6 -21,-71.6Z" fill="#dfeef0"/><g clip-path="url(#k1)"><rect x="-21" y="-79.3" width="42" height="79.3" fill="#ff9a1f"/></g><g clip-path="url(#k2)"><ellipse cx="16.8" cy="-51.2" rx="9.4" ry="76.8" fill="#000000" opacity="0.1"/></g><path d="M-21,-70Q0,-66 21,-70V-34Q0,-30 -21,-34Z" fill="#fffaf0"/><circle cx="0" cy="-52" r="10" fill="#ff9800"/><circle cx="0" cy="-52" r="8" fill="#ffc15a"/><path d="M0,-58V-46M-6,-52H6M-4.2,-56.2L4.2,-47.8M-4.2,-47.8L4.2,-56.2" fill="none" stroke="#f7a534" stroke-width="1.5" stroke-linecap="round" stroke-linejoin="round"/><path d="M1,-62Q7,-68 10,-62Q5,-60 1,-62Z" fill="#5ea636"/><rect x="-10.5" y="-125" width="21" height="5" rx="2" fill="#e4f1f2"/><path d="M-11.5,-125V-131H11.5V-125Z" fill="#f57c00"/><path d="M-10.5,-126.4H10.5" fill="none" stroke="#c46300" stroke-width="1.5" stroke-linecap="round" stroke-linejoin="round" stroke-dasharray="1.2 1.4"/><path d="M-16,-12V-71.6" fill="none" stroke="#ffffff" stroke-width="3" stroke-linecap="round" stroke-linejoin="round" opacity="0.4"/><path d="M-6.5,-102.4V-116" fill="none" stroke="#ffffff" stroke-width="1.5" stroke-linecap="round" stroke-linejoin="round" opacity="0.5"/></g><g transform="translate(150 160) scale(1.15 1.15) rotate(0)"><ellipse cx="0" cy="7" rx="16" ry="4" fill="#8f6aa0" opacity="0.2"/><ellipse cx="0" cy="1" rx="14" ry="11" fill="#d9730c"/><ellipse cx="0" cy="0" rx="14" ry="11" fill="#f28c13"/><ellipse cx="0" cy="-1" rx="12" ry="9" fill="#ffc15a"/><path d="M0,-8V6M-9,-1H9M-6.4,-7L6.4,5M-6.4,5L6.4,-7" fill="none" stroke="#f7a534" stroke-width="1.5" stroke-linecap="round" stroke-linejoin="round"/></g></g></svg>
